<?xml version="1.0" encoding="utf-8"?>
<!-- Generator: Adobe Illustrator 23.0.1, SVG Export Plug-In . SVG Version: 6.00 Build 0)  -->
<svg version="1.1" id="Calque_1" xmlns="http://www.w3.org/2000/svg" xmlns:xlink="http://www.w3.org/1999/xlink" x="0px" y="0px"
	 viewBox="0 0 300 300" style="enable-background:new 0 0 300 300;" xml:space="preserve">
<style type="text/css">
	.st0{fill:#90DFAA;}
	.st1{fill:#F1543F;}
	.st2{fill:#FF7058;}
	.st3{fill:#E6E9EE;}
	.st4{fill:#FFFFFF;}
</style>
<g id="gas" transform="translate(0)">
	<ellipse id="Ellipse_344" class="st0" cx="150" cy="150" rx="151" ry="150"/>
	<g id="Groupe_309" transform="translate(9.859 5.275)">
		<rect id="Rectangle_1473" x="128" y="49.3" class="st1" width="24.2" height="42.3"/>
		<rect id="Rectangle_1474" x="172.5" y="49.3" class="st1" width="5.5" height="42.3"/>
		<rect id="Rectangle_1475" x="102.3" y="49.3" class="st1" width="5.5" height="42.3"/>
		<path id="Tracé_510" class="st1" d="M182.7,250.3H97.6c-3.5,0-6.4-2.8-6.4-6.3c0,0,0,0,0-0.1v-28.8h97.9v28.8
			C189.1,247.5,186.2,250.3,182.7,250.3C182.7,250.3,182.7,250.3,182.7,250.3z"/>
	</g>
	<g id="Groupe_310" transform="translate(8.641 4.316)">
		<path id="Tracé_511" class="st2" d="M141.4,82.4L141.4,82.4c-34,0-61.6,4-61.6,37.8v86.7c0,33.8,27.6,29.3,61.6,29.3l0,0
			c34,0,61.6,4.5,61.6-29.3v-86.7C202.9,86.4,175.4,82.4,141.4,82.4z"/>
		<path id="Tracé_512" class="st2" d="M179.4,54.5h-76.1c-3.9,0-7.1-3.2-7.1-7.1l0,0c0-3.9,3.2-7.1,7.1-7.1h76.1
			c3.9,0,7.1,3.2,7.1,7.1l0,0c0.1,3.9-3,7-6.9,7.1C179.6,54.5,179.5,54.5,179.4,54.5z"/>
	</g>
	<g id="Groupe_311" transform="translate(8.067 12.399)">
		<path id="Tracé_513" class="st3" d="M205.9,184.4H78c-1.9,0-3.5-1.6-3.6-3.5l0,0c0-1.9,1.6-3.5,3.6-3.5h128.1
			c1.9,0,3.5,1.6,3.6,3.5l0,0C209.5,182.8,207.9,184.3,205.9,184.4z"/>
		<path id="Tracé_514" class="st3" d="M205.9,123H78c-1.9,0-3.5-1.6-3.6-3.5l0,0c0-1.9,1.6-3.5,3.6-3.5h128.1
			c1.9,0,3.5,1.6,3.6,3.5l0,0C209.5,121.4,207.9,122.9,205.9,123z"/>
	</g>
	<g id="Groupe_312" transform="translate(11.008 14.386)">
		<path id="Tracé_515" class="st4" d="M120,148.1h5.7v9c-2.7,2.9-6.5,4.4-10.5,4.3c-3.6,0.1-7-1.2-9.5-3.8
			c-5.1-5.3-5.1-13.6,0-18.9c2.5-2.5,6-3.9,9.5-3.8c3.5-0.1,6.9,1.2,9.5,3.5l-3.1,4.3c-1-0.8-2-1.5-3.1-2.1c-1-0.2-2.1-0.3-3.1-0.2
			c-2-0.1-4,0.7-5.5,2.1c-1.5,1.6-2.3,3.7-2.1,5.9c-0.1,2.1,0.6,4.2,2.1,5.7c1.4,1.4,3.3,2.2,5.2,2.1c1.7,0,3.4-0.4,5-1.2v-6.8
			L120,148.1z"/>
		<path id="Tracé_516" class="st4" d="M148.7,161.1l-2.4-5.4h-10.7l-2.4,5.4h-6.2l11.2-25.5h5.5l11.2,25.5H148.7z M141.1,143.2
			l-3.3,7.3h6.4L141.1,143.2z"/>
		<path id="Tracé_517" class="st4" d="M163.7,140.6c-0.5,0.5-0.8,1.2-0.7,1.9c-0.1,0.7,0.3,1.4,1,1.7c1.5,0.8,3.1,1.3,4.8,1.7
			c2.1,0.5,4,1.4,5.7,2.6c1.4,1.3,2.1,3.2,1.9,5.2c0,2.2-0.9,4.3-2.6,5.7c-2,1.5-4.4,2.3-6.9,2.1c-4.1,0-8-1.6-10.9-4.5l3.3-4.3
			c2,2,4.7,3.3,7.6,3.5c0.9,0.1,1.7-0.2,2.4-0.7c0.7-0.4,1-1.1,1-1.9c0-0.8-0.3-1.5-1-1.9c-1.2-0.7-2.5-1.2-3.8-1.4
			c-2.4-0.4-4.7-1.4-6.7-2.8c-1.5-1.4-2.3-3.4-2.1-5.4c0-2.2,0.9-4.3,2.6-5.7c1.9-1.4,4.3-2.1,6.7-1.9c1.8,0,3.6,0.3,5.2,0.9
			c1.7,0.5,3.2,1.4,4.5,2.6l-2.9,4.3c-1.9-1.6-4.4-2.5-6.9-2.6C164.9,140.1,164.2,140.1,163.7,140.6z"/>
	</g>
</g>
</svg>
