<?xml version="1.0" encoding="utf-8"?>
<!-- Generator: Adobe Illustrator 23.0.1, SVG Export Plug-In . SVG Version: 6.00 Build 0)  -->
<svg version="1.1" id="Calque_1" xmlns="http://www.w3.org/2000/svg" xmlns:xlink="http://www.w3.org/1999/xlink" x="0px" y="0px"
	 viewBox="0 0 300 300" style="enable-background:new 0 0 300 300;" xml:space="preserve">
<style type="text/css">
	.st0{fill:#FD8469;}
	.st1{fill:#F1543F;}
	.st2{fill:#324A5E;}
	.st3{fill:#E6E9EE;}
	.st4{fill:#FFFFFF;}
	.st5{fill:#84DBFF;}
</style>
<g id="factory" transform="translate(0)">
	<ellipse id="Ellipse_346" class="st0" cx="150" cy="150" rx="151" ry="150"/>
	<path id="Tracé_538" class="st1" d="M30,240.9c51.1,66.3,146.3,78.6,212.6,27.5c10.3-8,19.6-17.2,27.5-27.5H30z"/>
	<path id="Tracé_539" class="st2" d="M194,180.7h-39l8.1-99.7h22.8L194,180.7z"/>
	<path id="Tracé_540" class="st3" d="M252.9,171.3v69.7h-125v-92.1l41.6,22.4v-22.4l41.8,22.4v-22.4L252.9,171.3z"/>
	<rect id="Rectangle_1479" x="47.1" y="81" class="st4" width="80.8" height="159.9"/>
	<g id="Groupe_319" transform="translate(5.976 9.661)">
		<rect id="Rectangle_1480" x="51.1" y="84.1" class="st5" width="14.7" height="14.6"/>
		<rect id="Rectangle_1481" x="74.1" y="84.1" class="st5" width="14.7" height="14.6"/>
		<rect id="Rectangle_1482" x="97.2" y="84.1" class="st5" width="14.7" height="14.6"/>
		<rect id="Rectangle_1483" x="51.1" y="109.6" class="st5" width="14.7" height="14.6"/>
		<rect id="Rectangle_1484" x="74.1" y="109.6" class="st5" width="14.7" height="14.6"/>
		<rect id="Rectangle_1485" x="97.2" y="109.6" class="st5" width="14.7" height="14.6"/>
		<rect id="Rectangle_1486" x="51.1" y="134.9" class="st5" width="14.7" height="14.6"/>
		<rect id="Rectangle_1487" x="74.1" y="134.9" class="st5" width="14.7" height="14.6"/>
		<rect id="Rectangle_1488" x="97.2" y="134.9" class="st5" width="14.7" height="14.6"/>
		<rect id="Rectangle_1489" x="51.1" y="160.4" class="st5" width="14.7" height="14.6"/>
		<rect id="Rectangle_1490" x="74.1" y="160.4" class="st5" width="14.7" height="14.6"/>
		<rect id="Rectangle_1491" x="97.2" y="160.4" class="st5" width="14.7" height="14.6"/>
		<rect id="Rectangle_1492" x="51.1" y="185.7" class="st5" width="14.7" height="14.6"/>
		<rect id="Rectangle_1493" x="74.1" y="185.7" class="st5" width="14.7" height="14.6"/>
		<rect id="Rectangle_1494" x="97.2" y="185.7" class="st5" width="14.7" height="14.6"/>
	</g>
	<g id="Groupe_320" transform="translate(14.229 18.372)">
		<rect id="Rectangle_1495" x="122.9" y="160" class="st2" width="6.9" height="12.8"/>
		<rect id="Rectangle_1496" x="131.7" y="160" class="st2" width="6.9" height="12.8"/>
		<rect id="Rectangle_1497" x="167.2" y="160" class="st2" width="6.9" height="12.8"/>
		<rect id="Rectangle_1498" x="176.2" y="160" class="st2" width="6.9" height="12.8"/>
		<rect id="Rectangle_1499" x="211.6" y="160" class="st2" width="6.9" height="12.8"/>
		<rect id="Rectangle_1500" x="220.7" y="160" class="st2" width="6.9" height="12.8"/>
	</g>
	<path id="Tracé_541" class="st4" d="M174,75.1c0-0.2-0.1-0.4-0.2-0.5c-0.1-0.5-0.3-1-0.5-1.4c-0.1-0.8-0.1-1.6,0-2.4
		c0.2-1.2,0.6-2.3,1.2-3.3c0.9-1.2,2.1-2.2,3.6-2.6c1.5-0.4,3-0.6,4.5-0.5c1.4,0,2.9,0.2,4.3,0.5l4.3,0.7c1.4,0.2,2.6,0.2,3.8,0.5
		h1.9c0.7,0,1.2-0.2,1.7-0.2c2.1-0.5,4.1-1.4,5.9-2.6c1.3-0.9,2.5-2,3.6-3.3c0.7-1,1.2-1.7,1.2-1.7v0.5c0,0.5-0.1,1-0.2,1.4
		c-0.4,1.8-1.3,3.6-2.6,5c-1.7,2.2-4,3.8-6.7,4.7c-0.7,0.2-1.7,0.5-2.4,0.7c-0.8,0.2-1.6,0.3-2.4,0.2c-1.6,0-3.2,0-4.8-0.2
		c-1.5-0.2-2.9-0.5-4.3-1c-1.2-0.3-2.5-0.6-3.8-0.7c-1.1-0.2-2.2-0.3-3.3-0.2c-0.9,0.1-1.7,0.4-2.4,1c-1.1,1.1-2,2.5-2.4,4L174,75.1
		z"/>
</g>
</svg>
