<?xml version="1.0" encoding="utf-8"?>
<!-- Generator: Adobe Illustrator 23.0.1, SVG Export Plug-In . SVG Version: 6.00 Build 0)  -->
<svg version="1.1" id="Calque_1" xmlns="http://www.w3.org/2000/svg" xmlns:xlink="http://www.w3.org/1999/xlink" x="0px" y="0px"
	 viewBox="0 0 300 300" style="enable-background:new 0 0 300 300;" xml:space="preserve">
<g>
	<path d="M189.5,33.6c0.3,2.5,2.8,4.4,5.3,3.7c2.5-0.7,4.4-2.8,3.7-5.3l-4.7-28.1c-0.3-2.5-2.8-4.4-5.3-3.7
		c-2.5,0.3-4.4,2.8-3.7,5.3L189.5,33.6z"/>
	<path d="M300.8,80.8c-0.3-2.5-2.8-4.4-5.3-3.7L267,81.7c-2.5,0.3-4.4,2.8-3.7,5.3c0.3,2.5,2.8,4.4,5.3,3.7l28.5-4.7
		C299.5,85.8,301.4,83.3,300.8,80.8z"/>
	<path d="M239.2,47.9c0.9,0.7,2.2,0.9,3.4,0.9c1.2-0.3,2.2-0.9,3.2-1.9l16.9-23.5c1.6-2.2,0.9-5-0.9-6.6c-2.2-1.2-5.3-0.9-6.9,1.2
		l-16.9,23.5C236.7,43.6,237,46.4,239.2,47.9z"/>
	<path d="M282.6,147.1l-23.5-16.9c-2.2-1.6-5-0.9-6.6,0.9c-1.6,2.2-0.9,5,0.9,6.6l23.5,16.9c0.9,0.7,2.2,0.9,3.4,0.9
		s2.2-0.9,3.2-1.9C285.1,151.7,284.8,148.7,282.6,147.1z"/>
	<path d="M126,45.7l23.5,16.9c0.9,0.7,2.2,0.9,3.4,0.9c1.2-0.3,2.2-0.9,3.2-1.9c1.6-2.2,0.9-5-0.9-6.6l-23.7-16.9
		c-2.2-1.6-5-0.9-6.6,0.9C123.5,41.3,123.8,44.5,126,45.7z"/>
	<path d="M259.5,167.7L130.4,70.5L0.9,167.7c-2.2,1.6-2.5,4.4-0.9,6.6c1.6,2.2,4.4,2.5,6.6,0.9l30.3-22.8v141c0,2.5,2.2,4.7,4.7,4.7
		c2.5,0,4.7-2.2,4.7-4.7V145.5l84.1-63.2l84.1,63.2v143.2h-79.4v-26.5c16-2.2,28.5-16.2,28.5-32.8v-33.5h-10.9v-33.5
		c0-2.5-2.2-4.7-4.7-4.7c-2.5,0-4.7,2.2-4.7,4.7v33.5h-25.3v-33.5c0-2.5-2.2-4.7-4.7-4.7s-4.7,2.2-4.7,4.7v33.5H97.7V229
		c0,16.6,12.5,30.6,28.5,32.8v36h98.1V152.4l30.3,22.8c0.9,0.7,1.9,0.9,2.8,0.9c1.6,0,2.8-0.7,3.7-1.9
		C262,172.4,261.6,169.3,259.5,167.7z M106.7,229v-23.7h47.5V229c0,13.2-10.7,23.7-23.7,23.7C117.2,253,106.7,242.1,106.7,229z"/>
	<path d="M204.1,60.7c16,0.9,29.4,14.4,30.3,30.3c0.9,14.1-7.5,26.5-19.4,31.9l8.2,6.2c13.7-8.2,22.2-23.7,20.3-41.3
		c-2.2-19.1-17.8-34.4-36.9-36.3c-21.6-2.5-40.3,11.6-45.4,31l8.4,6.2C172,72.3,186.7,59.8,204.1,60.7z"/>
</g>
</svg>
