<?xml version="1.0" encoding="utf-8"?>
<!-- Generator: Adobe Illustrator 23.0.1, SVG Export Plug-In . SVG Version: 6.00 Build 0)  -->
<svg version="1.1" id="Calque_1" xmlns="http://www.w3.org/2000/svg" xmlns:xlink="http://www.w3.org/1999/xlink" x="0px" y="0px"
	 viewBox="0 0 300 300" style="enable-background:new 0 0 300 300;" xml:space="preserve">
<g>
	<g transform="translate(-429.000000, -93.000000)">
		<g transform="translate(430.000000, 96.000000)">
			<path d="M14.9,245.9c0,7.7,6.3,14,14,14H269c7.7,0,14-6.3,14-14V90.4c0-7.7-6.3-14-14-14H29c-7.7,0-14,6.3-14,14
				C14.9,90.4,14.9,245.9,14.9,245.9z M29,62.4H269c15.5,0,28.1,12.6,28.1,28.1V246c0,15.5-12.7,28.1-28.1,28.1H29
				c-15.5,0-28.1-12.6-28.1-28.1V90.4C0.8,74.9,13.6,62.4,29,62.4z"/>
			<rect x="0.8" y="132.9" width="296.4" height="14.1"/>
			<path d="M113.7,41.2c0-3.9,3.2-7.1,7-7.1h56.7c3.9,0,7,3.1,7,7.1v28.2h14.1V41.2c0-11.8-9.4-21.2-21.1-21.2h-56.7
				c-11.6,0-21.1,9.5-21.1,21.2v28.2h14.1V41.2z"/>
			<path d="M127.8,168.2c0,3.9,3.2,7.1,7.1,7.1h28.2c3.9,0,7.1-3.2,7.1-7.1v-28.2h-14.1v21.2h-14.1v-21.2h-14.1L127.8,168.2
				L127.8,168.2z"/>
		</g>
	</g>
</g>
</svg>
