<svg id="Calque_1" data-name="Calque 1" xmlns="http://www.w3.org/2000/svg" viewBox="0 0 296.4 254.1"><title>entreprise</title><path d="M15.9,226.9a14,14,0,0,0,14,14H270a14,14,0,0,0,14-14V71.4a14,14,0,0,0-14-14H30a14,14,0,0,0-14,14C15.9,71.4,15.9,226.9,15.9,226.9ZM30,43.4H270a28.12,28.12,0,0,1,28.1,28.1V227A28.19,28.19,0,0,1,270,255.1H30A28.12,28.12,0,0,1,1.9,227V71.4A28,28,0,0,1,30,43.4Z" transform="translate(-1.8 -1)"/><rect y="112.9" width="296.4" height="14.1"/><path d="M114.7,22.2a7.11,7.11,0,0,1,7-7.1h56.7a7,7,0,0,1,7,7.1V50.4h14.1V22.2A21.06,21.06,0,0,0,178.4,1H121.7a21.19,21.19,0,0,0-21.1,21.2V50.4h14.1Z" transform="translate(-1.8 -1)"/></svg>