<?xml version="1.0" encoding="utf-8"?>
<!-- Generator: Adobe Illustrator 23.0.1, SVG Export Plug-In . SVG Version: 6.00 Build 0)  -->
<svg version="1.1" id="Calque_1" xmlns="http://www.w3.org/2000/svg" xmlns:xlink="http://www.w3.org/1999/xlink" x="0px" y="0px"
	 viewBox="0 0 300 300" style="enable-background:new 0 0 300 300;" xml:space="preserve">
<style type="text/css">
	.st0{fill:#324A5E;}
	.st1{fill:#CED5E0;}
	.st2{fill:#FFFFFF;}
	.st3{fill:#E6E9EE;}
</style>
<g>
	<g id="Groupe_308">
		<circle id="Ellipse_339" class="st0" cx="150" cy="150" r="150"/>
		<path id="Tracé_495" class="st0" d="M299.9,150c0,59.1-34.7,112.6-88.6,136.8c-6.7,2.9-13.5,5.4-20.5,7.3
			c-34.9,10.1-72.3,7-105.1-8.7C10.9,249.8-20.9,160.4,14.6,85.6S139.6-21,214.4,14.5C266.6,39.4,300,92.1,299.9,150z"/>
	</g>
	<path id="Tracé_496" class="st1" d="M108.9,294.3c-7.9-2.3-15.5-5.2-22.9-8.7l6.6-144.8l0.2-8.3l0.2-3.3h8.3l0.2,5l0.2,7.3
		L108.9,294.3z"/>
	<path id="Tracé_497" class="st2" d="M104.2,118.4L86.9,45.2c-0.2-1.3-1.5-2.1-2.8-1.9c0,0,0,0,0,0l0,0l18.2,77.9l0,0
		c1.2-0.2,2.1-1.3,1.9-2.6C104.2,118.5,104.2,118.4,104.2,118.4z"/>
	<path id="Tracé_498" class="st3" d="M84.1,43.3l-0.5,57.2l18.7,20.8L84.1,43.3z"/>
	<path id="Tracé_499" class="st2" d="M86.9,127.6l-54.8,51.5c-1,1-1,2.6,0,3.5l0,0l58.6-54.8l0,0C89.7,126.7,88.1,126.6,86.9,127.6
		C87,127.6,86.9,127.6,86.9,127.6z"/>
	<path id="Tracé_500" class="st3" d="M31.9,182.4l49.6-28.1l9-26.7L31.9,182.4z"/>
	<path id="Tracé_501" class="st2" d="M103.5,137.7l72,21.7c1.3,0.4,2.6-0.3,3-1.5c0,0,0-0.1,0-0.1l0,0l-76.8-23.2l0,0
		C101.5,135.9,102.2,137.2,103.5,137.7z"/>
	<path id="Tracé_502" class="st3" d="M178.6,158l-49.1-29l-27.6,5.7L178.6,158z"/>
	<circle id="Ellipse_340" class="st2" cx="98.3" cy="127.8" r="14.2"/>
	<circle id="Ellipse_341" class="st3" cx="98.3" cy="127.8" r="7.1"/>
	<path id="Tracé_503" class="st1" d="M211.4,286.8c-6.7,2.9-13.5,5.4-20.5,7.3l6.1-134.6l0.2-7.1l0.2-3.5h7.6l0.2,3.5l0.2,7.1
		L211.4,286.8z"/>
	<path id="Tracé_504" class="st2" d="M207.4,155.9l67.3,11.6c1.2,0.2,2.4-0.7,2.6-1.9l0,0l-71.6-12.3l0,0c-0.4,1,0.1,2.1,1,2.5
		C207,155.9,207.2,155.9,207.4,155.9z"/>
	<path id="Tracé_505" class="st3" d="M277.1,165.6l-47.5-20.5l-24.1,8.3L277.1,165.6z"/>
	<path id="Tracé_506" class="st2" d="M205.7,138.4l-23.6-64c-0.5-1.1-1.7-1.7-2.8-1.4l0,0l25,68l0,0
		C205.4,140.7,206,139.5,205.7,138.4z"/>
	<path id="Tracé_507" class="st3" d="M179.3,73l5.9,51.3l19.1,16.8L179.3,73z"/>
	<path id="Tracé_508" class="st2" d="M191.3,148.3L147.6,201c-0.8,0.9-0.7,2.3,0.2,3.1l0,0l46.3-55.7l0,0c-0.7-0.8-1.9-0.9-2.7-0.2
		C191.4,148.2,191.4,148.3,191.3,148.3z"/>
	<path id="Tracé_509" class="st3" d="M148.1,204.1l41.3-30.9l5-25L148.1,204.1z"/>
	<circle id="Ellipse_342" class="st2" cx="201.5" cy="147.7" r="12.8"/>
	<circle id="Ellipse_343" class="st3" cx="201.5" cy="147.7" r="6.4"/>
</g>
</svg>
