<?xml version="1.0" encoding="utf-8"?>
<!-- Generator: Adobe Illustrator 23.0.1, SVG Export Plug-In . SVG Version: 6.00 Build 0)  -->
<svg version="1.1" id="Calque_1" xmlns="http://www.w3.org/2000/svg" xmlns:xlink="http://www.w3.org/1999/xlink" x="0px" y="0px"
	 viewBox="0 0 300 300" style="enable-background:new 0 0 300 300;" xml:space="preserve">
<style type="text/css">
	.st0{fill:#FFD05B;}
	.st1{fill:#FFFFFF;}
	.st2{fill:#F9B54C;}
	.st3{fill:#E6E9EE;}
	.st4{fill:#54C0EB;}
	.st5{fill:#324A5E;}
	.st6{fill:#ACB3BA;}
	.st7{fill:#84DBFF;}
</style>
<g id="dam" transform="translate(0)">
	<ellipse id="Ellipse_345" class="st0" cx="150" cy="149.4" rx="150" ry="149"/>
	<g id="Groupe_313" transform="translate(0.55 7.646)">
		<path id="Tracé_518" class="st1" d="M283.4,74.9c-2.8,0.2-5.7,0.5-8.5,0.5c-10.7,0.1-21.4-1.8-31.4-5.6
			c-10.1,3.7-20.8,5.6-31.6,5.6c-10.7,0.1-21.4-1.8-31.4-5.6c-10.1,3.8-20.8,5.7-31.6,5.6c-10.7,0.1-21.4-1.8-31.4-5.6
			c-10.1,3.7-20.8,5.6-31.6,5.6c-10.7,0.1-21.4-1.8-31.4-5.6c-10.1,3.7-20.8,5.6-31.6,5.6c-2.8,0-5.7-0.2-8-0.2
			c0.2-0.6,0.6-1.2,1-1.6c13.1,1.1,26.2-0.7,38.5-5.2h0.5c20,7.4,42.1,7.4,62.1,0h0.5c20.1,7.4,42.2,7.4,62.4,0h0.5
			c20,7.4,42.1,7.4,62.1,0h0.5c12.3,4.6,25.5,6.4,38.5,5.2C282.9,73.7,283.2,74.2,283.4,74.9z"/>
		<path id="Tracé_519" class="st1" d="M287.4,83.3c-4.1,0.5-8.2,0.7-12.3,0.7c-10.7,0-21.3-1.8-31.4-5.4
			c-10.1,3.7-20.8,5.5-31.6,5.4c-10.7,0-21.3-1.8-31.4-5.4c-10.1,3.7-20.8,5.5-31.6,5.4c-10.7,0-21.4-1.8-31.5-5.4
			c-10.1,3.7-20.8,5.5-31.6,5.4c-10.7,0-21.3-1.8-31.4-5.4c-10.1,3.7-20.8,5.5-31.6,5.4c-4,0-8.1-0.2-12-0.7
			c0.2-0.5,0.5-1.2,0.7-1.6c14.4,1.8,28.9,0.1,42.5-4.9h0.5c9.9,3.6,20.4,5.5,30.9,5.4c10.7,0,21.4-1.9,31.4-5.6h0.5
			c9.9,3.6,20.4,5.5,30.9,5.4c10.7,0,21.4-1.9,31.4-5.6h0.5c20,7.4,42.1,7.4,62.1,0h0.5c13.6,5.1,28.2,6.7,42.5,4.7
			C286.9,82.1,287.2,82.6,287.4,83.3z"/>
		<path id="Tracé_520" class="st1" d="M290.7,91.5c-5.1,0.9-10.4,1.4-15.6,1.4c-10.7,0.1-21.4-1.8-31.4-5.6
			c-10.1,3.7-20.8,5.6-31.6,5.6c-10.7,0.1-21.4-1.8-31.4-5.6C170.5,91,159.8,93,149,92.9c-10.7,0.1-21.4-1.8-31.4-5.6
			C107.5,91,96.8,92.9,86,92.9c-10.7,0.1-21.4-1.8-31.4-5.6C44.5,91,33.8,92.9,23,92.9c-5.1,0-10.3-0.4-15.3-1.2
			c0.2-0.5,0.5-1.2,0.7-1.6c15.5,2.6,31.3,1.1,46.1-4.2h0.5c20.1,7.3,42,7.3,62.1,0h0.5c20.1,7.3,42.2,7.3,62.4,0h0.5
			c9.9,3.7,20.4,5.5,30.9,5.4c10.7,0,21.4-1.9,31.4-5.6h0.5c14.7,5.5,30.6,6.9,46.1,4.2C289.9,90.2,290.5,90.8,290.7,91.5z"/>
		<path id="Tracé_521" class="st1" d="M293.5,100c-6.1,1.3-12.2,1.9-18.4,1.9c-10.7,0.1-21.4-1.8-31.4-5.6
			c-10.1,3.7-20.8,5.6-31.6,5.6c-10.7,0.1-21.4-1.8-31.4-5.6c-10.1,3.8-20.8,5.7-31.6,5.6c-10.7,0.1-21.4-1.8-31.4-5.6
			c-10.1,3.7-20.8,5.6-31.6,5.6c-10.7,0.1-21.4-1.8-31.4-5.6c-10.1,3.7-20.8,5.6-31.6,5.6c-6,0-12-0.5-17.9-1.6
			c0.2-0.5,0.2-1.2,0.5-1.6c16.3,3.1,33.2,1.8,48.9-3.8h0.5c20.1,7.3,42,7.3,62.1,0h0.5c20.1,7.3,42.2,7.3,62.4,0h0.5
			c20.1,7.3,42,7.3,62.1,0h0.5c15.6,5.7,32.6,7,48.9,3.8C293.1,98.8,293.3,99.3,293.5,100z"/>
	</g>
	<g id="Groupe_314" transform="translate(0 11.612)">
		<path id="Tracé_522" class="st2" d="M4.1,103.5C-15,184.1,34.9,264.9,115.5,284c80.6,19,161.4-30.9,180.4-111.5
			c5.4-22.7,5.4-46.3,0-69H4.1z"/>
		<path id="Tracé_523" class="st2" d="M22.2,215.9h255.3c0.7-1.2,1.7-2.6,2.4-3.8c13.2-22.6,20.1-48.3,20.1-74.4
			c0-11.5-1.4-23-4-34.3H4.1c-2.7,11.2-4,22.7-4,34.3c-0.1,27.1,7.4,53.8,21.5,77C21.8,215.2,22,215.5,22.2,215.9z"/>
	</g>
	<path id="Tracé_524" class="st3" d="M252,250.1H48l8.3-134.5h187.5L252,250.1z"/>
	<g id="Groupe_315" transform="translate(6.692 13.63)">
		<path id="Tracé_525" class="st4" d="M227.2,219.8h-28.6l2.6-88c0.5-5.9,5.6-10.5,11.6-10.3l0,0c6-0.4,11.2,4.1,11.6,10.1
			c0,0.1,0,0.1,0,0.2L227.2,219.8z"/>
		<path id="Tracé_526" class="st4" d="M180.9,219.8h-28.8l2.6-88c0.5-5.9,5.6-10.5,11.6-10.3l0,0c6-0.4,11.2,4.1,11.6,10.1
			c0,0.1,0,0.1,0,0.2L180.9,219.8z"/>
		<path id="Tracé_527" class="st4" d="M134.4,219.8h-28.6l2.6-88c0.5-5.9,5.6-10.5,11.6-10.3l0,0c6-0.4,11.1,4.2,11.5,10.2
			c0,0,0,0.1,0,0.1L134.4,219.8z"/>
		<path id="Tracé_528" class="st4" d="M88.1,219.8H59.5l2.6-88c0.5-5.9,5.6-10.5,11.6-10.3l0,0c6-0.4,11.2,4.1,11.6,10.1
			c0,0.1,0,0.1,0,0.2L88.1,219.8z"/>
	</g>
	<g id="Groupe_316" transform="translate(6.978 13.63)">
		<path id="Tracé_529" class="st5" d="M224.1,131.1c-0.8-5.7-5.8-9.9-11.6-9.6l0,0c-5.8-0.3-10.8,3.9-11.6,9.6H224.1z"/>
		<path id="Tracé_530" class="st5" d="M177.7,131.1c-0.8-5.7-5.8-9.9-11.6-9.6l0,0c-5.8-0.3-10.8,3.9-11.6,9.6H177.7z"/>
		<path id="Tracé_531" class="st5" d="M131.5,131.1c-0.8-5.7-5.8-9.9-11.6-9.6l0,0c-5.8-0.3-10.8,3.9-11.6,9.6H131.5z"/>
		<path id="Tracé_532" class="st5" d="M85.2,131.1c-0.8-5.7-5.8-9.9-11.6-9.6l0,0c-5.8-0.3-10.8,3.9-11.6,9.6H85.2z"/>
	</g>
	<g id="Groupe_317" transform="translate(10.133 11.659)">
		<rect id="Rectangle_1476" x="182.9" y="103.9" class="st6" width="6.8" height="134.5"/>
		<rect id="Rectangle_1477" x="136.6" y="103.9" class="st6" width="6.8" height="134.5"/>
		<rect id="Rectangle_1478" x="90" y="103.9" class="st6" width="6.8" height="134.5"/>
	</g>
	<g id="Groupe_318" transform="translate(5.306 6.673)">
		<path id="Tracé_533" class="st1" d="M53.8,62.9c-0.1-1.8-1.7-3.2-3.5-3.1c-1.7,0.1-3,1.4-3.1,3.1c0,1.4,0.9,2.6,2.1,3.1v43h2.1
			V66C52.8,65.6,53.8,64.4,53.8,62.9z"/>
		<path id="Tracé_534" class="st1" d="M116.6,62.9c-0.1-1.8-1.7-3.2-3.5-3.1c-1.7,0.1-3,1.4-3.1,3.1c0,1.4,0.9,2.6,2.1,3.1v43h2.1
			V66C115.6,65.6,116.6,64.4,116.6,62.9z"/>
		<path id="Tracé_535" class="st1" d="M179.4,62.9c-0.1-1.8-1.7-3.2-3.5-3.1c-1.7,0.1-3,1.4-3.1,3.1c0,1.4,0.9,2.6,2.1,3.1v43h2.1
			V66C178.4,65.6,179.4,64.4,179.4,62.9z"/>
		<path id="Tracé_536" class="st1" d="M242.3,62.9c-0.1-1.8-1.7-3.2-3.5-3.1c-1.7,0.1-3,1.4-3.1,3.1c0,1.4,0.9,2.6,2.1,3.1v43h2.1
			V66C241.3,65.6,242.2,64.4,242.3,62.9z"/>
	</g>
	<path id="Tracé_537" class="st7" d="M279.9,223.8c-4.7,8.1-10.1,15.7-16.3,22.7l0,0c-6,7-12.6,13.3-19.8,19
		c-1,0.7-2.1,1.6-3.1,2.3c-0.9,0.7-2.1,1.6-3.1,2.3c-2.1,1.6-4.3,3.1-6.6,4.5c-1.2,0.7-2.4,1.4-3.3,2.1c-1.2,0.7-2.4,1.4-3.3,2.1
		c-1.2,0.7-2.4,1.2-3.5,1.9c-1.2,0.7-2.4,1.2-3.5,1.9c-1.1,0.6-2.3,1.2-3.5,1.6c-1.2,0.5-2.4,1.2-3.5,1.6H210l-3.5,1.4l-3.5,1.4
		c-0.2,0.2-0.7,0.2-1.2,0.5c-2.1,0.7-4.5,1.6-6.6,2.3c-1.2,0.5-2.6,0.7-3.8,1.2c-4.2,1.2-8.5,2.1-12.8,3.1c-1,0.2-1.9,0.2-3.1,0.5
		h-0.5c-1.1,0.3-2.2,0.4-3.3,0.5H171c-1.2,0.2-2.6,0.2-3.8,0.5H167c-0.7,0-1.4,0.2-2.4,0.2s-1.9,0.2-2.8,0.2s-2.1,0.2-3.3,0.2
		c-1.4,0-2.8,0.2-4,0.2H142c-1.1,0-2.2,0-3.3-0.2c-1,0-1.7-0.2-2.6-0.2c-0.9,0-2.1-0.2-3.1-0.2c-2.1-0.3-4.3-0.6-6.4-0.9
		c-0.7,0-1.4-0.2-1.9-0.2c-0.8-0.1-1.6-0.2-2.4-0.5c-1.2-0.2-2.1-0.5-3.3-0.7c-0.8-0.2-1.7-0.4-2.6-0.5c-1.2-0.2-2.4-0.5-3.5-0.9
		c-4.8-1.2-9.6-2.7-14.2-4.5l-2.1-0.7c-0.8-0.3-1.6-0.6-2.4-0.9l-3.5-1.4c-1.2-0.4-2.4-1-3.5-1.6c-1.2-0.5-2.4-1.2-3.5-1.6
		c-1.2-0.7-2.6-1.2-3.8-1.9c-1.2-0.5-2.3-1.2-3.3-1.9c-1.2-0.7-2.4-1.2-3.3-1.9c-1-0.5-1.9-1.2-2.8-1.6c-1.4-1-2.6-1.6-4-2.6
		c-1.9-1.4-4-2.8-5.9-4.2l-7.1-5.6c-0.7-0.7-1.7-1.4-2.4-2.1c-1.9-1.6-3.8-3.5-5.7-5.4l-2.8-2.8c-0.9-0.9-1.8-1.8-2.6-2.8
		c-1-1-1.7-1.9-2.6-2.8l0,0c-5.9-6.5-11.1-13.6-15.6-21.1c2.6-4.1,7.1-6.7,12-6.8h1.9c3.9-6.9,12.7-9.3,19.6-5.4
		c2.4,1.4,4.4,3.4,5.6,5.9c1.3-0.5,2.6-0.7,4-0.7c1.9,0,3.7,0.4,5.4,1.2c2.3-5.1,7.4-8.3,13-8.2c6.7,0.1,12.5,4.7,13.9,11.3
		c1-0.2,2-0.3,3.1-0.2c1.6,0,3.2,0.2,4.7,0.7c2.2-5.3,7.4-8.8,13.2-8.9c5.8,0,11,3.4,13.2,8.7c3.5-1.1,7.3-0.9,10.6,0.7
		c2-5.7,7.4-9.5,13.5-9.4c5.9-0.1,11.2,3.6,13.2,9.2c1.8-0.8,3.7-1.2,5.7-1.2h1.4c3.3-7.1,11.7-10.2,18.8-6.9c1.7,0.8,3.3,2,4.6,3.4
		c1.2-0.3,2.3-0.4,3.5-0.5c4.3,0,8.3,1.9,11.1,5.2c2.8-3.3,6.8-5.1,11.1-5.2c4.4,0,8.6,2.1,11.3,5.6c2.7-3.7,7-5.9,11.6-5.9
		c4.2-0.1,8.3,1.8,10.9,5.2c2.6-3.1,6.5-4.9,10.6-4.9C273.4,219.3,277,221.1,279.9,223.8z"/>
</g>
</svg>
