<svg id="Calque_1" data-name="Calque 1" xmlns="http://www.w3.org/2000/svg" viewBox="0 0 228.6 246.3"><title>particulier</title><path d="M40.1,246a5.69,5.69,0,0,1-5.5-5.5V209.8a26.46,26.46,0,0,1,9.9-21c25.9-21.4,54-36.1,62.9-40.6V109.9a24.88,24.88,0,0,1-9-19.4V45.7A45.75,45.75,0,0,1,144.1,0h9.6a45.84,45.84,0,0,1,45.7,46.1V90.8a24.73,24.73,0,0,1-9,19.4v38.3c9,4.4,37.1,19.2,62.9,40.6a26.46,26.46,0,0,1,9.9,21v30.7a5.5,5.5,0,0,1-11,0V210.1a16.19,16.19,0,0,0-6-12.5c-27.5-22.4-57.2-37.4-62.7-40.3a7.7,7.7,0,0,1-4.2-6.7V106.8a4.88,4.88,0,0,1,2.5-4.4,14.9,14.9,0,0,0,6.7-12.5V45.4a34.89,34.89,0,0,0-34.8-34.8h-9.6a34.89,34.89,0,0,0-34.8,34.8V90.1a15.44,15.44,0,0,0,6.7,12.5,4.88,4.88,0,0,1,2.5,4.4v43.1a7.4,7.4,0,0,1-4.2,6.7c-5.8,2.8-35.5,17.9-62.7,40.3a15.87,15.87,0,0,0-6,12.5v30.7A5.8,5.8,0,0,1,40.1,246Z" transform="translate(-34.6)"/></svg>