<?xml version="1.0" encoding="utf-8"?>
<!-- Generator: Adobe Illustrator 23.0.1, SVG Export Plug-In . SVG Version: 6.00 Build 0)  -->
<svg version="1.1" id="Calque_1" xmlns="http://www.w3.org/2000/svg" xmlns:xlink="http://www.w3.org/1999/xlink" x="0px" y="0px"
	 viewBox="0 0 300 300" style="enable-background:new 0 0 300 300;" xml:space="preserve">
<path d="M17.3,297.5c-3.5,0-6.6-3.1-6.6-6.6v-37.1c0-10.1,4.2-19.3,12-25.5c31.2-25.8,65.3-43.6,76.1-49v-46.4
	c-7-5.8-10.8-14.3-10.8-23.6V55.3C88,24.8,112.7,0,143.2,0h11.5C185.3,0,210,24.8,210,55.6v54.1c0,9.3-3.8,17.8-10.8,23.6v46.4
	c10.8,5.4,44.8,23.2,76.1,49c7.7,6.1,12,15.5,12,25.5v37.1c0,3.5-3.1,6.6-6.6,6.6c-3.5,0-6.6-3.1-6.6-6.6v-37.1
	c0-5.8-2.8-11.5-7.3-15c-33.3-27-69.2-45.2-75.7-48.7c-3.1-1.6-5-4.7-5-8.2v-52.9c0-2.3,1.2-4.2,3.1-5.4c5-3.5,8.2-8.9,8.2-15V54.9
	c0-23.2-19-42.1-42.1-42.1h-11.5c-23.2,0-42.1,19-42.1,42.1V109c0,5.8,3.1,11.5,8.2,15c1.9,1.2,3.1,3.1,3.1,5.4v52.2
	c0,3.5-1.9,6.6-5,8.2c-7,3.5-42.9,21.6-75.7,48.7c-4.7,3.8-7.3,9.3-7.3,15v37.1C23.8,294.4,20.8,297.5,17.3,297.5z"/>
</svg>
