<?xml version="1.0" encoding="utf-8"?>
<!-- Generator: Adobe Illustrator 23.0.1, SVG Export Plug-In . SVG Version: 6.00 Build 0)  -->
<svg version="1.1" id="Calque_1" xmlns="http://www.w3.org/2000/svg" xmlns:xlink="http://www.w3.org/1999/xlink" x="0px" y="0px"
	 viewBox="0 0 300 300" style="enable-background:new 0 0 300 300;" xml:space="preserve">
<style type="text/css">
	.st0{fill:#54C0EB;}
	.st1{fill:#2B3B4E;}
	.st2{fill:#324A5E;}
	.st3{fill:#E6E9EE;}
	.st4{fill:#CED5E0;}
	.st5{fill:#F9B54C;}
	.st6{fill:#FFD05B;}
	.st7{fill:#FFFFFF;}
</style>
<g id="solar-panel" transform="translate(0 0)">
	<g id="Groupe_271">
		<circle id="Ellipse_335" class="st0" cx="150" cy="150" r="148.7"/>
		<circle id="Ellipse_336" class="st0" cx="150" cy="150" r="148.7"/>
	</g>
	<path id="Tracé_411" class="st1" d="M159.1,191.4v107c-3,0.2-6.1,0.2-9.1,0.2c-3,0-6.1,0-9.1-0.2v-107H159.1z"/>
	<path id="Tracé_412" class="st2" d="M231.5,158h-163c-2.2-0.2-4.4,0.4-6.1,1.9l-21.3,71.4c-0.5,1.6,2.1,3,6.1,3h205.5
		c3.7,0,6.5-1.4,6.1-3l-21.3-71.4C237.3,158.7,234.5,158,231.5,158z"/>
	<path id="Tracé_413" class="st3" d="M101.8,172.9H70.2l2.8-11h30.4L101.8,172.9z"/>
	<path id="Tracé_414" class="st4" d="M103.4,161.9l-1.6,11H70.2L103.4,161.9z"/>
	<path id="Tracé_415" class="st3" d="M144.4,172.9h-31.6l1.4-11h30.4L144.4,172.9z"/>
	<path id="Tracé_416" class="st4" d="M144.6,161.9l-0.2,11h-31.6L144.6,161.9z"/>
	<path id="Tracé_417" class="st3" d="M187.2,172.9h-31.6l-0.2-11h30.4L187.2,172.9z"/>
	<path id="Tracé_418" class="st4" d="M185.8,161.9l1.4,11h-31.6L185.8,161.9z"/>
	<path id="Tracé_419" class="st3" d="M229.8,172.9h-31.6l-1.6-11H227L229.8,172.9z"/>
	<path id="Tracé_420" class="st4" d="M227,161.9l2.8,11h-31.6L227,161.9z"/>
	<path id="Tracé_421" class="st3" d="M99.2,189.3H65.9l3-12.2H101L99.2,189.3z"/>
	<path id="Tracé_422" class="st4" d="M101,177.2l-1.9,12.2H65.9L101,177.2z"/>
	<path id="Tracé_423" class="st3" d="M144.1,189.3h-33.3l1.4-12.2h32.1L144.1,189.3z"/>
	<path id="Tracé_424" class="st4" d="M144.4,177.2l-0.2,12.2h-33.3L144.4,177.2z"/>
	<path id="Tracé_425" class="st3" d="M189.1,189.3h-33.3l-0.2-12.2h32.1L189.1,189.3z"/>
	<path id="Tracé_426" class="st4" d="M187.7,177.2l1.4,12.2h-33.3L187.7,177.2z"/>
	<path id="Tracé_427" class="st3" d="M234.1,189.3h-33.3l-1.9-12.2H231L234.1,189.3z"/>
	<path id="Tracé_428" class="st4" d="M231,177.2l3,12.2h-33.3L231,177.2z"/>
	<path id="Tracé_429" class="st3" d="M96.4,207.6H61.2l3.5-13.6h33.7L96.4,207.6z"/>
	<path id="Tracé_430" class="st4" d="M98.5,194l-2.1,13.6H61.2L98.5,194z"/>
	<path id="Tracé_431" class="st3" d="M143.9,207.6h-35.1l1.6-13.6h33.7L143.9,207.6z"/>
	<path id="Tracé_432" class="st4" d="M144.1,194l-0.2,13.6h-35.1L144.1,194z"/>
	<path id="Tracé_433" class="st3" d="M191.2,207.6h-35.1l-0.2-13.6h33.7L191.2,207.6z"/>
	<path id="Tracé_434" class="st4" d="M189.6,194l1.6,13.6h-35.1L189.6,194z"/>
	<path id="Tracé_435" class="st3" d="M238.7,207.6h-35.1l-2.1-13.6h33.7L238.7,207.6z"/>
	<path id="Tracé_436" class="st4" d="M235.2,194l3.5,13.6h-35.1L235.2,194z"/>
	<path id="Tracé_437" class="st3" d="M93.1,227.7H55.9l4-15h35.8L93.1,227.7z"/>
	<path id="Tracé_438" class="st4" d="M95.7,212.7l-2.6,15H55.9L95.7,212.7z"/>
	<path id="Tracé_439" class="st3" d="M143.4,227.7h-37.2l1.9-15h35.6L143.4,227.7z"/>
	<path id="Tracé_440" class="st4" d="M143.7,212.7l-0.2,15h-37.2L143.7,212.7z"/>
	<path id="Tracé_441" class="st3" d="M193.8,227.7h-37.2l-0.2-15h35.6L193.8,227.7z"/>
	<path id="Tracé_442" class="st4" d="M191.9,212.7l1.9,15h-37.2L191.9,212.7z"/>
	<path id="Tracé_443" class="st3" d="M244.1,227.7h-37.2l-2.6-15h35.8L244.1,227.7z"/>
	<path id="Tracé_444" class="st4" d="M240.1,212.7l4,15h-37.2L240.1,212.7z"/>
	<g id="Groupe_272" transform="translate(9.207 3.127)">
		<path id="Tracé_445" class="st5" d="M145.9,51.1l-5.1-11.5l-5.1,11.5H145.9z"/>
		<path id="Tracé_446" class="st5" d="M135.6,110.6l5.1,11.5l5.1-11.5H135.6z"/>
		<path id="Tracé_447" class="st5" d="M170.5,86l11.5-5.1l-11.5-5.2V86z"/>
		<path id="Tracé_448" class="st5" d="M111,75.7l-11.5,5.1L111,86V75.7z"/>
		<path id="Tracé_449" class="st5" d="M134,51.3l-13.3-19.2l4,23.2L134,51.3z"/>
		<path id="Tracé_450" class="st5" d="M147.6,110.3l13.3,19.2l-4-23.2L147.6,110.3z"/>
		<path id="Tracé_451" class="st5" d="M170.3,74.1l19.2-13.3l-23.2,4L170.3,74.1z"/>
		<path id="Tracé_452" class="st5" d="M111.3,87.6L92.1,101l23.2-4L111.3,87.6z"/>
		<path id="Tracé_453" class="st5" d="M115.3,64.7l-23.2-4l19.2,13.3L115.3,64.7z"/>
		<path id="Tracé_454" class="st5" d="M166.3,97l23.2,4l-19.2-13.3L166.3,97z"/>
		<path id="Tracé_455" class="st5" d="M156.9,55.3l4-23.2l-13.3,19.2L156.9,55.3z"/>
		<path id="Tracé_456" class="st5" d="M124.6,106.4l-4,23.2l13.3-19.2L124.6,106.4z"/>
		<path id="Tracé_457" class="st5" d="M165.4,63.3l4.5-11.5l-11.5,4.5L165.4,63.3z"/>
		<path id="Tracé_458" class="st5" d="M116.2,98.2l-4.5,11.7l11.5-4.5L116.2,98.2z"/>
		<path id="Tracé_459" class="st5" d="M158.3,105.4l11.5,4.5l-4.5-11.7L158.3,105.4z"/>
		<path id="Tracé_460" class="st5" d="M123.2,56.3l-11.5-4.5l4.5,11.5L123.2,56.3z"/>
	</g>
	<circle id="Ellipse_337" class="st6" cx="150" cy="84" r="31.8"/>
	<g id="Groupe_273" transform="translate(5.779 5.433)">
		<path id="Tracé_461" class="st7" d="M222,113.9c0.4-1.3,0.6-2.6,0.5-4c-0.1-7-5.4-12.8-12.4-13.3c0-0.7,0.2-1.4,0.2-2.1
			c0-6.6-5.3-11.9-11.9-11.9l0,0c-2,0-3.9,0.4-5.6,1.4c-3.1-3.9-7.7-6.1-12.6-6.1c-9-0.1-16.3,7.2-16.4,16.2c0,0.1,0,0.1,0,0.2
			c0,0.8,0,1.6,0.2,2.3c-6,1.5-10.2,6.7-10.3,12.9c0,1.3,0.2,2.7,0.5,4H222V113.9z"/>
		<path id="Tracé_462" class="st7" d="M141.9,135.7c0.5-1.5,0.7-3.1,0.7-4.7c0-8.6-6.7-15.6-15.2-16.2c0.2-0.8,0.3-1.6,0.2-2.3
			c0-8-6.5-14.5-14.5-14.5c-2.5,0-4.9,0.7-7,1.9c-7.1-8.5-19.8-9.7-28.3-2.6c-4.6,3.8-7.3,9.5-7.3,15.5c0,0.9,0,1.9,0.2,2.8
			c-7.3,1.8-12.4,8.4-12.4,15.9c0,1.6,0.2,3.2,0.7,4.7h82.9V135.7z"/>
		
			<ellipse id="Ellipse_338" transform="matrix(0.7071 -0.7071 0.7071 0.7071 -6.0522 110.6953)" class="st7" cx="130.6" cy="62.7" rx="7.3" ry="3.7"/>
	</g>
</g>
</svg>
