<?xml version="1.0" encoding="utf-8"?>
<!-- Generator: Adobe Illustrator 23.0.1, SVG Export Plug-In . SVG Version: 6.00 Build 0)  -->
<svg version="1.1" id="Calque_1" xmlns="http://www.w3.org/2000/svg" xmlns:xlink="http://www.w3.org/1999/xlink" x="0px" y="0px"
	 viewBox="0 0 300 300" style="enable-background:new 0 0 300 300;" xml:space="preserve">
<path d="M40.1,246c-2.8,0-5.5-2.5-5.5-5.5v-30.7c0-8.3,3.5-15.9,9.9-21c25.9-21.4,54-36.1,62.9-40.6v-38.3c-5.8-4.8-9-11.8-9-19.4
	V45.7C98.4,20.5,118.9,0,144.1,0h9.6c25.2,0,45.7,20.5,45.7,46.1v44.7c0,7.6-3.2,14.7-9,19.4v38.3c9,4.4,37.1,19.2,62.9,40.6
	c6.4,5.1,9.9,12.7,9.9,21v30.7c0,2.8-2.5,5.5-5.5,5.5c-2.8,0-5.5-2.5-5.5-5.5v-30.7c0-4.8-2.3-9.6-6-12.5
	c-27.5-22.4-57.2-37.4-62.7-40.3c-2.5-1.3-4.2-3.9-4.2-6.7v-43.8c0-1.9,0.9-3.5,2.5-4.4c4.2-2.8,6.7-7.4,6.7-12.5V45.4
	c0-19.2-15.7-34.8-34.8-34.8h-9.6c-19.2,0-34.8,15.7-34.8,34.8v44.7c0,4.8,2.5,9.6,6.7,12.5c1.6,0.9,2.5,2.5,2.5,4.4v43.1
	c0,2.8-1.6,5.5-4.2,6.7c-5.8,2.8-35.5,17.9-62.7,40.3c-3.9,3.2-6,7.6-6,12.5v30.7C45.5,243.5,42.9,246,40.1,246z M169.5,162.6
	c0,5.5-2.3,10.2-5.5,13.8l4.8,102.9c0,1.6-0.7,3.2-1.9,4.2l-14.7,13.3c-0.9,0.9-2.3,1.3-3.5,1.3c-1.3,0-2.5-0.3-3.5-1.3L130.8,284
	c-1.3-0.9-1.9-2.5-1.9-4.2l4.4-104.2c-2.8-3.5-4.8-8-4.8-12.7c0-2.8,2.5-5.5,5.5-5.5s5.5,2.5,5.5,5.5c0,5.1,4.2,9.2,9.2,9.2
	c1.9,0,3.9-0.7,5.5-1.6c0.3-0.3,0.7-0.7,0.9-0.9c1.9-1.6,3.2-4.2,3.2-7.1s2.5-5.5,5.5-5.5C166.9,157.2,169.5,159.8,169.5,162.6z
	 M157.3,277.3l-4.2-94.9c-1.3,0.3-2.8,0.3-4.2,0.3c-1.6,0-3.5-0.3-5.1-0.7l-4.2,95.2l8.6,8L157.3,277.3z"/>
</svg>
