<?xml version="1.0" standalone="no"?>
<!DOCTYPE svg PUBLIC "-//W3C//DTD SVG 1.1//EN" "http://www.w3.org/Graphics/SVG/1.1/DTD/svg11.dtd" >
<svg xmlns="http://www.w3.org/2000/svg">
<metadata>Generated by IcoMoon</metadata>
<defs>
<font id="icomoon" horiz-adv-x="1024">
<font-face units-per-em="1024" ascent="960" descent="-64" />
<missing-glyph horiz-adv-x="1024" />
<glyph unicode="&#x20;" horiz-adv-x="512" d="" />
<glyph unicode="&#xe900;" glyph-name="afficher" d="M820.907 477.013h-279.893v279.893h-58.027v-279.893h-279.893v-58.027h279.893v-279.893h58.027v279.893h279.893zM0 960v-1024h1024v1024h-1024zM975.189-14.507h-926.72v925.355h926.379v-925.355h0.341z" />
<glyph unicode="&#xe901;" glyph-name="a-signer" d="M512 960c-282.283 0-512-229.717-512-512s229.717-512 512-512 512 229.717 512 512-229.717 512-512 512zM512 38.4c-225.963 0-409.6 183.637-409.6 409.6s183.637 409.6 409.6 409.6 409.6-183.637 409.6-409.6-183.637-409.6-409.6-409.6zM562.517 462.677c0.341 2.731 0.683 5.12 0.683 7.851v223.573c0 28.331-22.869 51.2-51.2 51.2s-51.2-22.869-51.2-51.2v-223.232c0-4.437-0.341-53.931 15.701-68.267l158.379-142.336c9.557-8.875 21.845-12.971 34.133-12.971 13.995 0 28.331 5.461 38.229 17.067 18.773 21.163 17.067 53.589-4.096 72.363l-140.629 125.952z" />
<glyph unicode="&#xe902;" glyph-name="biogaz" d="M848.896 619.008c0 72.021-58.368 130.048-130.048 130.048h-35.157v159.061h24.917c14.336 0 25.941 11.605 25.941 25.941s-11.605 25.941-25.941 25.941h-392.875c-14.336 0-25.941-11.605-25.941-25.941s11.605-25.941 25.941-25.941h24.917v-158.72h-35.157c-72.021 0-130.048-58.368-130.048-130.048v-422.571c0.341-60.416 41.301-112.299 100.352-126.293v-127.659h473.429v127.317c58.368 13.995 99.669 65.877 100.352 126.293l-0.683 422.571zM392.192 908.117h239.275v-158.72h-93.867v55.637c0 14.336-11.605 25.941-25.941 25.941s-25.941-11.605-25.941-25.941v-55.637h-93.867l0.341 158.72zM305.152 697.515h413.696c43.008 0 77.824-35.157 77.824-77.824v-226.304h-569.685v225.963c0 43.008 35.157 78.165 78.165 78.165zM327.339-5.291v71.68h369.323v-71.68h-369.323zM718.848 118.272h-413.696c-43.008 0-77.824 35.157-77.824 77.824v144.384h569.685v-144.384c-0.341-42.667-35.157-77.824-78.165-77.824z" />
<glyph unicode="&#xe903;" glyph-name="camera" d="M4.779 588.629v-388.096c0-104.789 84.992-189.781 189.781-189.781h634.88c104.789 0 189.781 84.992 189.781 189.781v388.096c0 104.789-84.992 189.781-189.781 189.781h-66.901c-23.893 63.488-84.309 106.496-154.283 106.496h-192.171c-69.973 0-130.389-43.349-154.283-106.496h-67.243c-104.448 0-189.781-84.992-189.781-189.781zM93.867 588.629c0 55.296 45.397 100.693 100.693 100.693h139.264l7.509 43.349c6.144 36.523 37.547 63.147 74.752 63.147h192.171c36.864 0 68.608-26.283 74.752-63.147l7.509-43.349h138.923c55.296 0 100.693-45.397 100.693-100.693v-388.096c0-55.296-45.397-100.693-100.693-100.693h-634.88c-55.296 0-100.693 45.397-100.693 100.693v388.096zM512 204.629c134.485 0 243.371 108.885 243.371 243.371s-108.885 243.371-243.371 243.371-243.371-108.885-243.371-243.371 108.885-243.371 243.371-243.371zM512 598.869c83.285 0 150.869-67.584 150.869-150.869s-67.243-150.869-150.869-150.869-150.869 67.243-150.869 150.869 67.584 150.869 150.869 150.869z" />
<glyph unicode="&#xe904;" glyph-name="cogeneration" d="M646.827 845.312c1.024-8.533 9.557-15.019 18.091-12.629s15.019 9.557 12.629 18.091l-16.043 95.915c-1.024 8.533-9.557 15.019-18.091 12.629-8.533-1.024-15.019-9.557-12.629-18.091l16.043-95.915zM1026.731 684.203c-1.024 8.533-9.557 15.019-18.091 12.629l-97.28-15.701c-8.533-1.024-15.019-9.557-12.629-18.091 1.024-8.533 9.557-15.019 18.091-12.629l97.28 16.043c8.192 0.683 14.677 9.216 12.629 17.749zM816.469 796.501c3.072-2.389 7.509-3.072 11.605-3.072 4.096 1.024 7.509 3.072 10.923 6.485l57.685 80.213c5.461 7.509 3.072 17.067-3.072 22.528-7.509 4.096-18.091 3.072-23.552-4.096l-57.685-80.213c-4.437-7.168-3.413-16.725 4.096-21.845zM964.608 457.899l-80.213 57.685c-7.509 5.461-17.067 3.072-22.528-3.072-5.461-7.509-3.072-17.067 3.072-22.528l80.213-57.685c3.072-2.389 7.509-3.072 11.605-3.072s7.509 3.072 10.923 6.485c5.461 6.485 4.437 16.725-3.072 22.187zM430.080 804.011l80.213-57.685c3.072-2.389 7.509-3.072 11.605-3.072 4.096 1.024 7.509 3.072 10.923 6.485 5.461 7.509 3.072 17.067-3.072 22.528l-80.896 57.685c-7.509 5.461-17.067 3.072-22.528-3.072-4.779-7.851-3.755-18.773 3.755-22.869zM885.76 387.584l-440.661 331.776-442.027-331.776c-7.509-5.461-8.533-15.019-3.072-22.528s15.019-8.533 22.528-3.072l103.424 77.824v-481.28c0-8.533 7.509-16.043 16.043-16.043s16.043 7.509 16.043 16.043v504.832l287.061 215.723 287.061-215.723v-488.789h-271.019v90.453c54.613 7.509 97.28 55.296 97.28 111.957v114.347h-37.205v114.347c0 8.533-7.509 16.043-16.043 16.043s-16.043-7.509-16.043-16.043v-114.347h-86.357v114.347c0 8.533-7.509 16.043-16.043 16.043s-16.043-7.509-16.043-16.043v-114.347h-37.205v-112.981c0-56.661 42.667-104.448 97.28-111.957v-122.88h334.848v496.299l103.424-77.824c3.072-2.389 6.485-3.072 9.557-3.072 5.461 0 9.557 2.389 12.629 6.485 3.072 6.144 1.707 16.725-5.461 22.187zM364.203 178.347v80.896h162.133v-80.896c0-45.056-36.523-80.896-80.896-80.896-45.397-1.024-81.237 36.181-81.237 80.896zM696.661 752.811c54.613-3.072 100.352-49.152 103.424-103.424 3.072-48.128-25.6-90.453-66.219-108.885l27.989-21.163c46.763 27.989 75.776 80.896 69.291 140.971-7.509 65.195-60.757 117.419-125.952 123.904-73.728 8.533-137.557-39.595-154.965-105.813l28.672-21.163c8.192 55.979 58.368 98.645 117.76 95.573z" />
<glyph unicode="&#xe905;" glyph-name="confirmation" d="M512-64c-282.283 0-512 229.717-512 512s229.717 512 512 512 512-229.717 512-512-229.717-512-512-512zM512 895.829c-247.125 0-447.829-200.704-447.829-447.829s200.704-448.171 447.829-448.171 448.171 201.045 448.171 448.171-201.045 447.829-448.171 447.829zM416.085 592.043c0-26.392-21.395-47.787-47.787-47.787s-47.787 21.395-47.787 47.787c0 26.392 21.395 47.787 47.787 47.787s47.787-21.395 47.787-47.787zM703.829 591.701c0-26.392-21.395-47.787-47.787-47.787s-47.787 21.395-47.787 47.787c0 26.392 21.395 47.787 47.787 47.787s47.787-21.395 47.787-47.787zM512 154.453c-104.448 0-201.728 56.32-253.952 146.773-8.875 15.36-3.755 35.157 11.605 43.691 15.36 8.875 35.157 3.755 43.691-11.605 40.96-70.656 117.077-114.688 198.656-114.688s157.696 44.032 198.656 114.688c8.533 15.36 28.672 20.821 43.691 11.605 15.36-8.533 20.821-28.672 11.605-43.691-52.224-90.795-149.504-146.773-253.952-146.773z" />
<glyph unicode="&#xe906;" glyph-name="contactez-nous" d="M512 960c-282.624 0-512-229.376-512-512s229.376-512 512-512 512 229.376 512 512v0c-0.341 282.624-229.376 511.659-512 512zM472.064 889.344c12.971 1.024 26.624 1.707 39.936 1.707s26.624-0.683 39.936-1.707v-186.709c-26.624 4.096-53.589 4.096-80.213 0v186.709zM701.099 448c0-104.789-84.992-189.099-189.099-189.099s-189.099 84.992-189.099 189.099 84.992 189.099 189.099 189.099c104.789 0 189.099-84.309 189.099-189.099zM404.139 878.080v-196.267c-55.296-25.6-99.669-69.973-125.611-124.928h-196.608c40.619 157.355 163.84 280.576 321.536 321.195h0.683zM68.608 448c0 13.312 0.683 26.624 1.707 39.936h186.709c-4.096-26.624-4.096-53.589 0-80.213h-186.368c-1.365 13.653-2.048 26.965-2.048 40.277zM403.456 17.92c-157.696 40.277-280.917 163.157-321.536 321.536h196.267c25.6-55.296 69.973-99.328 124.928-124.928v-196.608zM551.936 6.997c-12.971-1.024-26.624-1.707-39.936-1.707s-26.624 0.683-39.936 1.707v186.368c26.624-4.096 53.589-4.096 80.213 0v-186.368zM620.544 17.92v196.267c55.296 25.6 99.328 69.973 124.928 124.928h195.925c-39.936-157.355-163.157-280.576-320.853-321.195zM955.392 448c0-13.312-0.683-26.624-1.707-39.936h-186.709c4.096 26.624 4.096 53.589 0 80.213h186.709c1.024-13.653 1.707-26.965 1.707-40.277zM745.813 556.544c-25.6 55.296-70.315 99.669-125.269 125.269v196.267c157.696-39.936 280.917-163.157 321.195-321.195h-195.925z" />
<glyph unicode="&#xe907;" glyph-name="date" d="M958.464-57.173h-889.856c-25.259 0-42.325 17.067-42.325 42.325v856.064c0 25.259 17.067 42.325 42.325 42.325h885.419c25.259 0 42.325-17.067 42.325-42.325v-856.064c4.779-25.259-16.384-42.325-37.888-42.325zM110.933 27.819h800.768v771.072h-800.768v-771.072zM293.547 400.555h-55.296c-25.259 0-42.325 17.067-42.325 42.325s17.067 42.325 42.325 42.325h55.296c25.259 0 42.325-17.067 42.325-42.325s-21.504-42.325-42.325-42.325zM539.307 400.555h-55.296c-25.259 0-42.325 17.067-42.325 42.325s17.067 42.325 42.325 42.325h55.296c25.259 0 42.325-17.067 42.325-42.325s-17.067-42.325-42.325-42.325zM789.163 400.555h-55.296c-25.259 0-42.325 17.067-42.325 42.325s17.067 42.325 42.325 42.325h55.296c25.259 0 42.325-17.067 42.325-42.325s-21.163-42.325-42.325-42.325zM293.547 239.445h-55.296c-25.259 0-42.325 17.067-42.325 42.325s17.067 42.325 42.325 42.325h55.296c25.259 0 42.325-17.067 42.325-42.325s-21.504-42.325-42.325-42.325zM539.307 239.445h-55.296c-25.259 0-42.325 17.067-42.325 42.325s17.067 42.325 42.325 42.325h55.296c25.259 0 42.325-17.067 42.325-42.325s-17.067-42.325-42.325-42.325zM789.163 239.445h-55.296c-25.259 0-42.325 17.067-42.325 42.325s17.067 42.325 42.325 42.325h55.296c25.259 0 42.325-17.067 42.325-42.325s-21.163-42.325-42.325-42.325zM293.547 78.677h-55.296c-25.259 0-42.325 17.067-42.325 42.325s17.067 42.325 42.325 42.325h55.296c25.259 0 42.325-17.067 42.325-42.325s-21.504-42.325-42.325-42.325zM539.307 78.677h-55.296c-25.259 0-42.325 17.067-42.325 42.325s17.067 42.325 42.325 42.325h55.296c25.259 0 42.325-17.067 42.325-42.325s-17.067-42.325-42.325-42.325zM958.464 578.389h-889.856c-25.259 0-42.325 17.067-42.325 42.325s17.067 42.325 42.325 42.325h885.419c25.259 0 42.325-17.067 42.325-42.325 0.683-25.259-16.384-42.325-37.888-42.325zM802.133 718.677c-25.259 0-42.325 17.067-42.325 42.325v157.013c0 24.917 17.067 41.984 42.325 41.984s42.325-17.067 42.325-42.325v-157.013c0-21.163-17.067-41.984-42.325-41.984zM225.621 718.677c-25.259 0-42.325 17.067-42.325 42.325v157.013c0 24.917 17.067 41.984 42.325 41.984s42.325-17.067 42.325-42.325v-157.013c0-21.163-21.163-41.984-42.325-41.984z" />
<glyph unicode="&#xe908;" glyph-name="ecology" d="M492.885 520.704c6.485 6.485-162.816-79.872-265.899-352.597 0 0-179.541 325.632 143.019 551.936 232.789 162.816 399.019 195.925 379.221 239.616-6.485 16.725 232.789-372.395-13.312-591.872-249.856-219.477-436.224-266.24-462.848-432.469-6.485-12.971-95.915 252.928 219.819 585.387z" />
<glyph unicode="&#xe909;" glyph-name="enlever-dispositif" d="M512 959.871c-282.283 0-512-229.717-512-512s229.717-512 512-512 512 229.717 512 512c0 282.624-229.717 512-512 512zM512 913.45c257.365 0 465.579-208.213 465.579-465.579s-208.213-465.579-465.579-465.579-465.579 208.213-465.579 465.579 208.213 465.579 465.579 465.579zM300.032 681.343c-12.629-1.024-21.845-12.629-20.821-25.6 0.341-5.461 2.731-10.923 7.168-14.336l193.195-193.195-193.195-192.853c-9.216-8.875-9.899-23.552-0.683-32.768 8.875-9.216 23.552-9.899 32.768-0.683 0.341 0.341 0.341 0.341 0.683 0.683l193.195 193.195 193.195-193.195c8.875-9.216 23.893-9.216 32.768-0.341 9.216 8.875 9.216 23.893 0.341 32.768-0.341 0.341-0.341 0.341-0.683 0.683l-193.195 192.853 193.195 193.195c9.216 8.533 9.899 23.552 1.024 32.768-5.12 5.461-12.629 8.192-20.139 7.168-5.12-0.683-9.899-3.413-13.312-6.827l-193.195-193.195-193.195 193.195c-5.12 4.437-11.947 7.168-19.115 6.485z" />
<glyph unicode="&#xe90a;" glyph-name="entreprise" d="M54.272 110.421c0-26.283 21.504-47.787 47.787-47.787h819.541c26.283 0 47.787 21.504 47.787 47.787v530.773c0 26.283-21.504 47.787-47.787 47.787h-819.2c-26.283 0-47.787-21.504-47.787-47.787-0.341 0-0.341-530.773-0.341-530.773zM102.4 736.768h819.2c52.907 0 95.915-43.008 95.915-95.915v-530.773c0-52.907-43.349-95.915-95.915-95.915h-819.2c-52.907 0-95.915 43.008-95.915 95.915v531.115c-0.341 52.907 43.349 95.573 95.915 95.573zM6.144 496.128h1011.712v-48.128h-1011.712v48.128zM391.509 809.131c0 13.312 10.923 24.235 23.893 24.235h193.536c13.312 0 23.893-10.581 23.893-24.235v-96.256h48.128v96.256c0 40.277-32.085 72.363-72.021 72.363h-193.536c-39.595 0-72.021-32.427-72.021-72.363v-96.256h48.128v96.256zM439.637 375.637c0-13.312 10.923-24.235 24.235-24.235h96.256c13.312 0 24.235 10.923 24.235 24.235v96.256h-48.128v-72.363h-48.128v72.363h-48.128l-0.341-96.256z" />
<glyph unicode="&#xe90b;" glyph-name="eolien" d="M981.675 382.123l-331.435 80.555c-12.288 3.072-24.576 0.683-35.157-5.803-9.557-5.803-16.043-15.019-19.115-26.283l-23.552 5.461c-2.731 24.576-20.821 44.715-44.715 50.517v21.845h1.707c12.629 0 24.235 5.12 32.768 13.995 8.533 9.216 13.312 20.821 12.629 33.451l-15.019 340.992c-1.024 23.893-20.48 42.667-44.715 42.667-23.893 0-43.691-18.773-44.715-42.667l-14.677-340.992c-0.341-12.629 4.096-24.235 12.629-33.451 8.875-9.216 20.139-13.995 32.768-13.995h1.707v-21.845c-23.552-5.12-41.643-24.576-44.715-48.811l-29.355-6.485c-3.072 10.581-9.557 19.797-19.115 26.283-10.581 6.485-23.211 8.875-35.157 5.803l-331.435-80.555c-23.552-5.461-37.888-28.672-33.451-52.224v0c4.096-21.504 22.869-36.181 43.691-36.181 2.048 0 4.779 0 6.827 0.341l337.237 51.883c12.629 1.707 23.211 8.533 30.037 18.773s9.899 22.869 7.509 34.816l-1.365 6.827 26.624 5.803c6.144-19.456 22.528-34.475 42.667-38.912v-32.768c-20.48-5.461-36.523-23.552-37.888-45.739l-29.696-326.315c-0.341-3.413 0.683-6.827 3.413-9.557 2.048-2.731 5.461-4.096 9.216-4.096h137.557c3.413 0 6.485 1.365 9.216 4.096s3.413 5.803 3.413 9.557l-29.696 325.973c-1.365 22.869-18.432 41.301-39.595 46.421v32.085c19.797 4.437 35.84 18.773 42.325 37.888l21.504-4.779-1.365-6.827c-2.731-12.288 0.341-24.576 7.509-34.816s18.091-17.067 30.037-18.773l337.237-51.883c2.048-0.341 4.779-0.341 6.827-0.341 20.821 0 39.595 14.677 43.691 36.181v0c3.072 23.211-11.264 46.080-34.816 51.883zM486.4 539.136c-4.096 4.096-5.803 9.557-5.803 15.36l14.677 340.992c0.341 10.581 9.216 19.115 20.139 19.115 10.581 0 19.797-8.533 20.139-19.115l14.677-340.992c0.341-5.803-1.707-10.923-5.803-15.36-4.096-4.096-9.216-6.144-15.019-6.144h-27.989c-6.144 0-11.264 2.389-15.019 6.144zM407.893 379.392c-3.413-4.779-8.192-7.851-13.995-8.533l-337.237-51.883c-10.581-1.707-20.48 5.461-22.869 16.043-2.048 10.581 4.437 20.821 15.019 23.552l331.435 80.555c5.461 1.365 11.264 0.341 16.043-2.731s8.192-7.851 9.216-13.653l5.461-27.648c1.365-5.461 0.341-10.923-3.072-15.701zM543.061 293.376l28.672-312.661h-110.251l28.672 313.003c1.024 13.995 12.629 24.576 26.624 24.576 13.312 0.683 24.917-10.581 26.283-24.917zM515.413 397.141c-18.432 0-33.109 14.677-33.109 33.109s14.677 33.109 33.109 33.109 33.109-14.677 33.109-33.109-15.019-33.109-33.109-33.109zM990.891 334.677c-2.048-10.581-12.288-17.749-22.869-16.043l-337.237 52.224c-5.461 0.683-10.581 4.096-13.995 8.533-3.413 4.779-4.437 10.24-3.413 15.701l5.461 27.648c1.024 5.461 4.437 10.24 9.216 13.653 3.413 2.048 7.509 3.413 10.923 3.413 1.365 0 3.413-0.341 5.12-0.683l331.435-80.555c10.923-2.731 17.749-13.312 15.36-23.893zM972.8 444.245c0.341 0 0.683 0 1.024 0 6.485 0.683 11.605 6.485 11.264 13.312-16.725 195.584-155.307 362.496-344.747 414.72-6.485 1.707-13.312-2.048-15.019-8.533s2.048-13.312 8.533-15.019c179.541-49.152 310.955-207.531 326.656-392.875 0.683-6.827 6.144-11.605 12.288-11.605zM631.467 779.093c143.019-39.253 247.467-164.864 259.755-312.661 0.341-6.144 5.803-11.264 12.288-11.264 0.341 0 0.683 0 1.024 0 6.485 0.683 11.605 6.485 11.264 13.312-13.312 157.696-124.928 292.181-277.845 334.507-6.485 1.707-13.312-2.048-15.019-8.533-1.707-6.827 2.048-13.653 8.533-15.36zM56.32 439.467c0.341 0 0.683 0 1.024 0 6.144 0 11.605 4.779 12.288 11.264 13.995 191.147 148.48 351.915 334.848 399.36 6.485 1.707 10.581 8.533 8.875 15.019s-8.533 10.581-15.019 8.875c-195.925-50.176-337.92-219.477-353.28-421.547-0.683-6.485 4.437-12.629 11.264-12.971z" />
<glyph unicode="&#xe90c;" glyph-name="fleche-bas" d="M6.827 704l505.173-505.173 505.173 505.173z" />
<glyph unicode="&#xe90d;" glyph-name="fleche-droite" d="M788.139 446.635v0c0-7.509-3.072-13.995-8.192-19.456l-500.053-486.741c-10.923-10.24-27.989-9.899-38.229 0.341s-10.24 27.307 0 37.888l481.28 467.285-480.939 467.627c-10.923 10.24-10.923 27.307-0.341 38.229s27.307 10.923 38.229 0.341v0l500.053-486.741c4.779-4.779 7.851-11.605 8.192-18.773z" />
<glyph unicode="&#xe90e;" glyph-name="fleche-gauche" d="M234.155 446.293v0c0 7.509 3.072 13.995 8.192 19.115l499.712 487.083c10.923 10.24 27.648 9.899 38.229-0.341s10.24-27.307 0-37.888l-480.939-467.285 480.256-467.285c10.923-10.24 10.923-27.307 0.341-38.229-10.24-10.923-27.307-10.923-38.229-0.341v0l-499.712 486.059c-5.12 5.12-7.851 11.947-7.851 19.115z" />
<glyph unicode="&#xe90f;" glyph-name="fleches-etape" d="M578.56-22.699l-149.845 150.528 294.571 294.571-294.571 294.571 149.845 150.528 445.44-444.757-445.44-445.44zM478.549 128.171l100.352-101.035 395.605 395.605-395.947 395.605-100.352-101.035 294.571-294.571-294.229-294.571zM146.432-22.699l-149.845 150.869 294.571 294.571-294.571 294.571 149.845 150.528 445.44-445.44-445.44-445.099zM46.421 128.171l100.352-101.035 395.605 395.605-395.947 395.605-100.011-101.035 294.571-294.571-294.571-294.571z" />
<glyph unicode="&#xe910;" glyph-name="hydraulique" d="M709.632 5.291c-44.032 0-86.016 19.797-114.688 54.272-20.48 25.259-50.859 39.253-82.603 39.253s-62.123-14.677-82.603-39.253c-28.672-34.475-70.315-54.272-114.688-54.272v0c-44.032 0-86.016 19.797-114.688 54.272-20.48 24.576-50.859 39.253-82.603 39.253s-62.123-14.677-82.603-39.253l-31.744 26.283c28.672 34.475 70.315 54.272 114.688 54.272v0c44.032 0 86.016-19.797 114.688-54.272 20.48-25.259 50.859-39.253 82.603-39.253s62.123 14.677 82.603 39.253c28.672 34.475 70.315 54.272 114.688 54.272 44.032 0 86.016-19.797 114.688-54.272 20.48-25.259 50.859-39.253 82.603-39.253s62.123 14.677 82.603 39.253c28.672 34.475 70.315 54.272 114.688 54.272 44.032 0 86.016-19.797 114.688-54.272l-31.744-26.283c-20.48 25.259-50.859 39.253-82.603 39.253s-62.123-14.677-82.603-39.253c-30.037-34.475-71.68-54.272-115.371-54.272zM608.939 442.197c-3.413 6.827-10.581 10.923-18.091 10.923h-114.005l69.291 104.448h-49.493l-75.435-112.981c-4.096-6.485-4.779-14.677-0.683-21.163 3.413-6.827 10.581-10.923 18.091-10.923h112.981l-69.291-104.448h50.176l74.752 112.981c4.437 6.485 5.12 13.995 1.707 21.163zM159.403 371.883c0 48.128 9.557 94.208 27.648 138.24 18.091 41.984 43.349 80.213 75.435 112.64 32.768 32.085 70.656 57.344 112.64 75.435 43.349 18.773 90.112 27.989 137.557 27.989s94.208-9.557 137.557-27.989c41.984-18.091 79.531-43.349 112.64-76.117 32.085-32.085 57.344-70.656 75.435-112.64 18.773-44.032 27.648-90.112 27.648-138.24 0-27.989-3.413-55.637-9.557-82.603 14.677 4.096 28.672 6.485 44.032 6.827 4.779 24.576 6.827 49.152 6.827 75.435 0 53.248-10.581 104.789-31.061 153.941-19.797 47.445-48.128 89.088-84.309 125.952-36.181 36.523-78.507 64.512-125.952 84.992-48.811 20.48-100.011 31.061-153.941 31.061s-104.789-10.581-153.941-31.061c-47.104-19.797-89.429-48.811-125.611-84.992s-64.512-78.848-84.309-125.952c-20.48-48.811-31.061-100.693-31.061-153.941 0-25.259 2.731-50.859 6.827-75.435 15.019-0.683 29.355-2.731 44.032-6.827-5.803 27.648-8.533 55.296-8.533 83.285zM491.861 888.32h40.96v-59.733h-40.96v59.733zM292.836 839.409l37.753 15.892 23.177-55.056-37.753-15.892-23.177 55.056zM133.469 722.404l29.012 28.914 42.166-42.309-29.012-28.914-42.166 42.309zM29.569 554.215l15.987 37.712 54.368-23.047-15.987-37.712-54.368 23.047zM670.702 800.995l23.183 55.050 37.749-15.897-23.183-55.050-37.749 15.897zM820.212 709.56l42.166 42.309 29.012-28.914-42.166-42.309-29.012 28.914zM924.116 568.654l54.368 23.047 15.987-37.712-54.368-23.047-15.987 37.712zM968.363 392.363h59.051v-40.96h-59.051v40.96zM-2.389 392.363h59.051v-40.96h-59.051v40.96zM709.632 127.488c-44.032 0-86.016 19.797-114.688 54.272-20.48 25.259-50.859 39.253-82.603 39.253s-62.123-14.677-82.603-39.253c-28.672-34.475-70.315-54.272-114.688-54.272v0c-44.032 0-86.016 19.797-114.688 54.272-20.48 24.576-50.859 39.253-82.603 39.253s-62.123-14.677-82.603-39.253l-31.744 26.283c28.672 34.475 70.315 54.272 114.688 54.272v0c44.032 0 86.016-19.797 114.688-54.272 20.48-25.259 50.859-39.253 82.603-39.253s62.123 14.677 82.603 39.253c28.672 34.475 70.315 54.272 114.688 54.272 44.032 0 86.016-19.797 114.688-54.272 20.48-25.259 50.859-39.253 82.603-39.253s62.123 14.677 82.603 39.253c28.672 34.475 70.315 54.272 114.688 54.272 44.032 0 86.016-19.797 114.688-54.272l-31.744-26.283c-20.48 25.259-50.859 39.253-82.603 39.253s-62.123-14.677-82.603-39.253c-30.037-34.816-71.68-54.272-115.371-54.272z" />
<glyph unicode="&#xe911;" glyph-name="information" d="M512 903.339c251.563 0 455.339-203.776 455.339-455.339s-203.776-455.339-455.339-455.339-455.339 203.776-455.339 455.339 203.776 455.339 455.339 455.339zM512 960c-283.307 0-512-228.693-512-512s228.693-512 512-512 512 228.693 512 512-228.693 512-512 512v0zM563.883 286.208l-3.413-15.701c-15.701-5.461-27.307-10.24-37.547-12.629-10.24-2.048-17.067-3.413-23.893-3.413-13.653 0-23.893 3.413-30.72 10.24-7.168 7.168-10.24 15.701-10.24 26.283 0 3.413 0 8.192 1.024 12.629s2.048 9.216 3.413 15.701l26.283 106.837c1.024 5.461 2.048 12.629 3.413 19.456 1.024 7.168 2.048 12.629 2.048 17.067 0 9.216-1.024 15.701-4.437 19.456s-9.216 4.437-19.456 4.437c-3.413 0-9.216-1.024-14.677-2.048s-10.24-2.048-13.653-3.413l3.413 15.701c13.653 5.461 24.917 10.24 35.499 13.653 10.24 3.413 18.091 4.437 24.917 4.437 13.653 0 23.893-3.413 29.355-10.24 5.461-7.168 9.216-15.701 9.216-26.283 0-3.413 0-7.168-1.024-12.629s-1.024-10.24-3.413-15.701l-27.307-106.837c-1.024-7.168-3.413-12.629-4.437-19.456-1.024-7.168-2.048-11.264-2.048-15.701 0-9.216 2.048-15.701 7.168-19.456 4.437-3.413 11.264-5.461 20.48-5.461 3.413 0 8.192 0 13.653 1.024 8.192 0 12.629 1.024 16.384 2.048zM581.973 608.768c0-9.216-3.413-18.091-9.216-24.917-5.461-7.168-13.653-10.24-22.869-10.24s-15.701 3.413-22.869 10.24-9.216 14.677-9.216 23.893c0 9.216 3.413 17.067 9.216 23.893 5.461 7.168 13.653 10.24 22.869 10.24s17.067-3.413 23.893-10.24c4.779-7.168 8.192-14.336 8.192-22.869z" />
<glyph unicode="&#xe912;" glyph-name="jeton" d="M776.875 545.28h-29.355v178.859c0 130.048-105.813 235.861-235.861 235.861s-235.861-105.813-235.861-235.861v-178.859h-29.013c-50.859 0-91.819-40.96-91.819-91.819v-425.643c0-50.859 40.96-91.819 91.819-91.819h530.432c50.859 0 91.819 40.96 91.819 91.819v425.643c0 50.859-41.301 91.819-92.16 91.819zM358.741 724.139c0 84.309 68.608 153.259 153.259 153.259s153.259-68.608 153.259-153.259v-178.859h-306.517v178.859zM559.104 245.589v-114.688c0-25.941-20.821-47.104-47.104-47.104-25.941 0-47.104 20.821-47.104 47.104v114.688c-22.187 15.019-36.181 40.277-36.181 68.608 0 46.080 37.205 83.285 83.285 83.285s83.285-37.205 83.285-83.285c0-28.672-14.336-53.931-36.181-68.608z" />
<glyph unicode="&#xe913;" glyph-name="localisation" d="M809.984 238.421l-299.008-299.008-299.008 299.008c-166.571 166.912-163.84 434.176 0 597.675 165.205 165.205 433.152 165.205 598.016 0 164.864-164.523 164.864-433.152 0-597.675z" />
<glyph unicode="&#xe914;" glyph-name="maison" d="M117.077 431.616v-421.888c0-7.851 3.072-15.36 8.533-20.48 5.461-5.461 12.971-8.533 20.48-8.533h235.861v309.589c0 7.851 3.072 15.36 8.533 20.48 5.461 5.461 12.971 8.533 20.48 8.533h201.387c7.851 0 15.36-3.072 20.48-8.533 5.461-5.12 8.533-12.971 8.533-20.48v-309.589h235.861c7.851 0 15.36 3.072 20.48 8.533 5.461 5.461 8.533 12.971 8.533 20.48v422.229l-399.36 310.272-389.803-310.613zM995.669 562.347l-447.829 344.747c-20.821 16.043-50.517 16.043-71.339 0l-240.299-184.661v92.843h-117.077v-182.955l-90.795-69.973c-25.259-19.797-30.379-56.32-10.923-82.261 11.605-15.019 28.672-22.869 46.421-22.869 6.485 0 12.629 1.024 19.115 3.413l410.624 326.656c7.851 6.485 19.115 6.485 26.965 0.341l420.523-327.339c22.869-7.509 49.152-0.341 64.853 19.797 20.139 25.6 15.36 62.805-10.24 82.261z" />
<glyph unicode="&#xe915;" glyph-name="modifier" d="M963.584 87.893c0-50.176-40.619-91.819-90.453-91.819h-722.603c-50.176 0-90.453 41.984-90.453 91.819v722.944c0 50.176 40.619 88.747 90.453 88.747h421.547v60.416h-421.547c-82.944 0-150.528-65.877-150.528-149.163v-722.603c0-83.285 67.584-152.235 150.528-152.235h722.603c82.944 0 150.528 68.949 150.528 151.893v420.523h-60.416l0.341-420.523zM807.253 743.595c-45.739 45.739-124.928 45.739-170.325 0l-403.797-403.797c-4.096-4.096-6.827-8.875-7.851-13.995l-42.325-170.325c-2.389-10.24 0.341-21.163 7.851-28.672 5.461-5.461 13.653-8.875 21.504-8.875 2.389 0 4.779 0.341 7.168 0.683l170.325 42.325c5.12 1.024 10.24 4.096 13.995 7.851l404.139 404.139c22.528 22.528 35.157 53.248 35.157 85.333s-13.312 62.805-35.84 85.333zM366.251 217.941l-113.664-28.672 28.672 113.664 334.165 334.165 85.333-85.333-334.507-333.824zM764.928 616.277l-21.504-21.504-85.333 85.333 21.504 21.504c22.528 22.528 62.464 22.528 85.333 0 11.605-11.605 17.408-26.624 17.408-42.325 0-16.725-6.485-31.744-17.408-43.008z" />
<glyph unicode="&#xe916;" glyph-name="mon-contrat" d="M934.571 679.083l-299.691 280.917h-545.451v-1024.341h845.141v743.424zM652.288 842.24l161.451-151.552h-161.451v151.552zM163.84 10.752v874.496h414.037v-269.653h282.283v-605.184l-696.32 0.341zM461.141 261.632l-107.179 103.083-50.859-53.248 158.037-153.259 259.755 246.101-50.859 54.955z" />
<glyph unicode="&#xe917;" glyph-name="money" d="M938.667 831.659c0 76.117-125.611 128.341-277.163 128.341s-277.163-52.224-277.163-128.341 125.269-128.341 277.163-128.341 277.163 52.907 277.163 128.341zM426.667 831.659c0 41.984 103.765 85.333 234.837 85.333s234.837-43.349 234.837-85.333-104.107-85.333-234.837-85.333-234.837 43.691-234.837 85.333zM384.341 704c0-75.776 125.269-128.341 277.163-128.341s277.163 52.565 277.163 128.341v127.659h-42.667v-128.341c0-41.984-103.765-85.333-234.837-85.333s-234.496 43.691-234.496 85.675v128h-42.667c0.341 0 0.341-127.659 0.341-127.659zM384.341 575.317v0 128.683h42.325v-128.341c0-1.024 0-2.389 0.341-3.755-13.995 2.048-28.331 3.072-42.667 3.413zM598.357 451.072c20.139-1.707 41.643-3.072 63.147-3.072 152.235 0 277.163 52.224 277.163 128.341v127.659h-42.667v-128.341c0-41.984-103.765-85.333-234.837-85.333-22.528 0-43.691 1.024-64.171 3.755 0-1.024 0.341-2.389 0.341-3.755 0-3.072 0.341-17.749 1.024-39.253zM601.429 322.731c19.456-1.707 39.253-2.731 59.733-2.731 152.235 0 277.163 52.224 277.163 128.341v128.341h-42.667v-128.683c0-41.984-103.765-85.333-234.837-85.333-21.163 0-41.643 1.024-60.757 3.413 0.341-13.995 1.024-28.672 1.365-43.349zM426.667 572.587v3.413h-42.667v-0.341c14.677-0.683 29.013-1.707 42.667-3.072zM640.341 448c0 75.776-125.269 128.341-277.163 128.341s-277.504-52.565-277.504-128.341 125.269-128.341 277.163-128.341 277.504 52.565 277.504 128.341zM128.341 448c0 41.984 103.765 85.333 234.837 85.333s234.837-43.349 234.837-85.333-104.107-85.333-235.179-85.333-234.496 43.349-234.496 85.333zM85.333 319.659c0-75.776 125.269-128.341 277.163-128.341s277.163 52.224 277.163 128.341v128.341h-42.325v-128.341c0-41.984-103.765-85.333-234.837-85.333s-234.837 43.349-234.837 85.333v128.341h-42.325v-128.341zM85.333 192c0-75.776 125.269-128.341 277.163-128.341s277.163 52.224 277.163 128.341v128.341h-42.325v-128.341c0-41.984-103.765-85.333-234.837-85.333s-234.837 43.349-234.837 85.333v128.341h-42.325v-128.341zM85.333 63.659c0-75.435 125.611-127.659 277.163-127.659s277.163 52.224 277.163 128.341v128.341h-42.325v-128.341c0-41.984-103.765-85.333-234.837-85.333s-234.155 43.008-234.155 84.992v128h-43.008v-128.341zM604.843 194.731c18.432-1.365 36.864-2.731 56.32-2.731 152.235 0 277.163 52.224 277.163 128.341v127.659h-42.667v-128.341c0-41.984-103.765-85.333-234.837-85.333-19.797 0-39.253 1.024-57.685 3.072 0.683-14.677 1.024-29.013 1.707-42.667zM608.256 66.048c17.067-1.365 34.816-2.389 52.907-2.389 152.235 0 277.163 52.224 277.163 128.341v128.341h-42.667v-128.341c0-41.984-103.765-85.333-234.837-85.333-18.773 0-36.864 0.683-54.272 2.731 1.024-22.528 1.365-37.888 1.707-43.349v0z" />
<glyph unicode="&#xe918;" glyph-name="mon-installation" d="M1017.856 655.531l-109.227 66.219v224.256c0 6.827-5.803 12.629-12.629 12.629h-162.133c-6.827 0-12.629-5.803-12.629-12.629v-111.275l-204.117 123.563c-1.365 0.683-2.389 1.024-4.096 1.365-3.413 0.683-6.485 0.341-9.557-1.365l-500.736-302.763c-4.096-2.731-6.144-6.827-6.144-10.923v-106.155c0-4.779 2.389-8.875 6.485-10.923s8.875-2.048 12.629 0l75.435 44.373v-517.803h-35.84c-6.827 0-12.629-5.803-12.629-12.629v-95.573c0-6.827 5.803-12.629 12.629-12.629h909.653c6.827 0 12.629 5.803 12.629 12.629v95.573c0 6.827-5.803 12.629-12.629 12.629h-35.84v517.12l75.435-44.032c1.707-1.024 4.437-1.707 6.485-1.707s4.437 0.683 6.144 1.707c4.096 2.048 6.485 6.485 6.485 10.923v106.496c0.341 4.096-1.707 8.192-5.803 10.923zM746.155 933.376h136.533v-196.267l-136.533 82.603v113.664zM952.32-41.813h-884.053v69.973h884.053v-69.973zM626.005 54.101h-231.083v401.067h231.083v-401.067zM903.851 54.101h-251.904v413.696c0 6.827-5.803 12.629-12.629 12.629h-257.024c-6.827 0-12.629-5.803-12.629-12.629v-414.037h-252.928v532.48l393.216 230.059 393.557-230.059v-532.48h0.341zM998.4 560.64l-481.963 281.6c-1.707 1.024-4.437 1.707-6.485 1.707s-4.437-0.683-6.485-1.707l-481.28-281.6v76.459l487.765 295.253 488.448-294.912v-76.8zM287.744 480.768h-87.723c-6.827 0-12.629-5.803-12.629-12.629v-220.501c0-6.827 5.803-12.629 12.629-12.629h87.723c6.827 0 12.629 5.803 12.629 12.629v220.501c0 6.827-5.461 12.629-12.629 12.629zM274.773 260.267h-62.123v194.901h62.123v-194.901zM733.867 234.325h87.723c6.827 0 12.629 5.803 12.629 12.629v220.501c0 6.827-5.803 12.629-12.629 12.629h-87.723c-6.827 0-12.629-5.803-12.629-12.629v-220.501c-0.341-6.827 5.461-12.629 12.629-12.629zM746.496 455.168h62.123v-194.901h-62.123v194.901z" />
<glyph unicode="&#xe919;" glyph-name="mon-profil" d="M511.392 959.833c-168.277 0-304.811-136.875-304.811-304.811 0-90.453 39.936-172.032 102.741-227.669-186.368-80.213-309.589-264.875-309.589-469.675 0-11.264 8.533-19.797 19.797-19.797h983.040c11.264 0 20.139 8.875 20.139 19.797 0 205.141-122.88 389.461-309.589 469.675 63.147 55.979 102.741 137.216 102.741 227.669 0.341 168.277-136.192 304.811-304.469 304.811zM511.392 920.238c146.091 0 265.216-118.784 265.216-265.216s-118.784-265.216-265.216-265.216-265.216 118.784-265.216 265.216 119.125 265.216 265.216 265.216zM346.528 398.681c47.787-31.061 104.107-48.811 165.205-48.811 60.757 0 117.077 17.749 164.864 48.811 177.493-66.219 298.325-232.789 306.176-421.547h-942.080c7.509 188.757 128.341 354.987 305.835 421.547v0z" />
<glyph unicode="&#xe91a;" glyph-name="particulier" d="M59.051-55.467c-11.947 0-22.528 10.581-22.528 22.528v126.635c0 34.475 14.336 65.877 40.96 87.040 106.496 88.064 222.891 148.821 259.755 167.253v158.379c-23.893 19.797-36.864 48.811-36.864 80.555v184.32c0 104.107 84.309 188.757 188.416 188.757h39.253c104.448 0 188.757-84.651 188.757-189.781v-184.661c0-31.744-12.971-60.757-36.864-80.555v-158.379c36.864-18.432 152.917-79.189 259.755-167.253 26.283-20.821 40.96-52.907 40.96-87.040v-126.635c0-11.947-10.581-22.528-22.528-22.528s-22.528 10.581-22.528 22.528v126.635c0 19.797-9.557 39.253-24.917 51.2-113.664 92.16-236.203 154.283-258.389 166.229-10.581 5.461-17.067 16.043-17.067 27.989v180.565c0 7.851 4.096 14.336 10.581 18.432 17.067 11.947 27.989 30.379 27.989 51.2v184.661c0 79.189-64.853 143.701-143.701 143.701h-39.253c-79.189 0-143.701-64.853-143.701-143.701v-184.661c0-19.797 10.581-39.253 27.989-51.2 6.485-4.096 10.581-10.581 10.581-18.432v-178.176c0-11.947-6.485-22.528-17.067-27.989-23.893-11.947-146.432-73.728-258.389-166.229-16.043-12.971-24.917-31.744-24.917-51.2v-126.635c-4.096-12.971-14.336-23.552-26.283-23.552z" />
<glyph unicode="&#xe91b;" glyph-name="photovoltaique" d="M439.979 856.576c1.365-6.827 6.827-10.923 13.653-10.923 1.365 0 2.731 0 2.731 0 6.827 1.365 12.288 9.899 9.899 16.725l-20.48 86.357c-1.365 6.827-9.899 12.288-16.725 10.923s-12.288-9.899-9.899-16.725l20.821-86.357zM580.267 842.923c1.365 0 2.731 0 4.096 0 5.461 0 10.923 4.096 13.653 9.899l25.941 84.992c2.731 6.827-1.365 15.019-9.899 16.725-6.827 2.731-15.019-1.365-16.725-9.899l-25.941-84.992c-2.389-6.827 2.048-15.36 8.875-16.725zM695.296 772.949c2.731 0 6.827 1.365 9.899 4.096l64.512 61.781c5.461 5.461 5.461 13.653 0 19.115s-13.653 5.461-19.115 0l-64.853-61.781c-5.461-5.461-5.461-13.653 0-19.115 2.389-1.024 6.827-4.096 9.557-4.096zM745.813 668.843c1.365-6.827 6.827-10.923 13.653-10.923 1.365 0 2.731 0 2.731 0l86.357 21.845c6.827 1.365 12.288 9.899 9.899 16.725-1.365 6.827-9.899 12.288-16.725 9.899l-86.357-21.845c-6.485-0.683-11.947-7.509-9.557-15.701zM172.715 679.765l86.357-20.48c1.365 0 2.731 0 2.731 0 5.461 0 12.288 4.096 13.653 10.923s-2.731 15.019-9.899 16.725l-86.357 20.48c-6.827 1.365-15.019-2.731-16.725-9.899-2.048-7.851 3.413-16.384 10.24-17.749zM315.392 777.045c2.731-2.731 5.461-4.096 9.899-4.096s6.827 1.365 9.899 4.096c5.461 5.461 5.461 13.653 0 19.115l-64.853 62.123c-5.461 5.461-13.653 5.461-19.115 0s-5.461-13.653 0-19.115l64.171-62.123zM925.696 620.715h-207.189c0 8.192-1.365 16.725-2.731 24.917-9.899 53.248-40.96 101.717-86.357 131.755-45.397 31.744-100.011 42.667-153.6 32.768-92.16-17.749-161.792-96.256-167.595-189.099h-212.651c-6.827 0-12.288-5.461-13.653-12.288l-56.32-498.347c0-4.096 1.365-8.192 2.731-10.923 2.731-2.731 6.827-4.096 9.899-4.096h323.925l-16.725-131.755c0-1.365 0-2.731 0-2.731h-181.248c-8.192 0-13.653-5.461-13.653-13.653s5.461-13.653 13.653-13.653h694.272c8.192 0 13.653 5.461 13.653 13.653s-5.461 13.653-13.653 13.653h-183.637c0 1.365 0 2.731 0 2.731l-16.725 131.755h323.925c4.096 0 8.192 1.365 9.899 4.096 2.731 2.731 4.096 6.827 2.731 10.923l-55.979 498.005c-0.683 6.827-6.144 12.288-12.971 12.288zM239.616 122.709l9.899 104.107h149.504l-5.461-104.107h-153.941zM419.499 593.408l-5.461-89.088h-138.581l8.192 89.088h135.851zM704.853 593.408v0h39.595l8.192-89.088h-138.581l-4.096 89.088h94.891zM434.517 379.392l5.461 97.28h148.139l5.461-97.28h-159.061zM595.285 351.744l5.461-97.28h-171.691l5.461 97.28h160.768zM615.765 477.013h141.312l9.899-97.28h-145.749l-5.461 97.28zM582.656 593.408l4.096-89.088h-145.749l5.461 89.088h136.192zM412.672 477.013l-5.461-97.28h-142.677l9.899 97.28h138.24zM237.227 379.392h-153.941l10.923 97.28h151.211l-8.192-97.28zM80.896 351.744h153.6l-9.899-97.28h-154.965l11.264 97.28zM261.803 351.744h145.749l-5.461-97.28h-149.845l9.557 97.28zM426.325 227.157h174.421l5.461-104.107h-185.344l5.461 104.107zM633.515 122.709l-5.461 104.107h153.6l9.899-104.107h-158.037zM626.688 254.464l-5.461 97.28h146.773l9.899-97.28h-151.211zM796.672 351.744h144.043l10.923-97.28h-145.749l-9.216 97.28zM794.283 379.392l-9.899 97.28h142.677l10.923-97.28h-143.701zM923.307 504.32h-141.312l-8.192 89.088h141.312l8.192-89.088zM479.915 782.848c46.421 8.192 94.891-1.365 133.12-28.672 39.595-27.307 65.877-67.243 74.069-114.005 1.365-6.827 1.365-12.288 2.731-19.115h-354.987c6.485 79.189 65.536 146.773 145.067 161.792zM256.341 593.408l-8.192-89.088h-151.211l9.899 89.088h149.504zM66.901 227.157h154.965l-9.899-104.107h-157.696l12.629 104.107zM648.533-39.083h-275.797l17.749 134.485h240.299l17.749-134.485zM818.859 122.709l-10.923 104.107h145.749l12.288-104.107h-147.115z" />
<glyph unicode="&#xe91c;" glyph-name="plus" d="M463.872 960h96.256v-1024h-96.256v1024zM0 496.128h1024v-96.256h-1024v96.256z" />
<glyph unicode="&#xe91d;" glyph-name="professionel" d="M136.875 120.32c-9.557 0-18.773 8.533-18.773 18.773v104.789c0 28.331 11.947 54.272 33.792 71.68 88.405 73.045 184.32 123.221 214.699 138.581v130.731c-19.797 16.384-30.72 40.277-30.72 66.219v152.917c0 86.016 69.973 155.989 155.989 155.989h32.768c86.016 0 155.989-69.973 155.989-157.355v-152.576c0-25.941-10.923-50.176-30.72-66.219v-130.731c30.72-15.019 126.635-65.536 214.699-138.581 21.845-17.408 33.792-43.349 33.792-71.68v-104.789c0-9.557-8.533-18.773-18.773-18.773-9.557 0-18.773 8.533-18.773 18.773v104.789c0 16.384-7.851 32.768-20.48 42.667-93.867 76.459-195.243 127.659-214.016 137.557-8.533 4.437-14.336 13.312-14.336 22.869v149.504c0 6.485 3.072 11.947 8.533 15.019 14.336 9.557 22.869 25.259 22.869 42.667v151.893c0 65.536-53.589 118.784-118.784 118.784h-32.768c-65.536 0-118.784-53.589-118.784-118.784v-152.576c0-16.384 8.533-32.768 22.869-42.667 5.461-3.072 8.533-8.533 8.533-15.019v-147.115c0-9.557-5.461-18.773-14.336-22.869-19.797-9.557-121.173-61.099-214.016-137.557-13.312-10.923-20.48-25.941-20.48-42.667v-104.789c-0.341-10.923-9.216-19.456-18.773-19.456zM578.56 404.992c0-18.773-7.851-34.816-18.773-47.104l16.384-351.232c0-5.461-2.389-10.923-6.485-14.336l-50.176-45.397c-3.072-3.072-7.851-4.437-11.947-4.437-4.437 0-8.533 1.024-11.947 4.437l-49.152 43.691c-4.437 3.072-6.485 8.533-6.485 14.336l15.019 355.669c-9.557 11.947-16.384 27.307-16.384 43.349 0 9.557 8.533 18.773 18.773 18.773s18.773-8.533 18.773-18.773c0-17.408 14.336-31.403 31.403-31.403 6.485 0 13.312 2.389 18.773 5.461 1.024 1.024 2.389 2.389 3.072 3.072 6.485 5.461 10.923 14.336 10.923 24.235s8.533 18.773 18.773 18.773c10.581-0.683 19.456-9.557 19.456-19.115zM536.917 13.483l-14.336 323.925c-4.437-1.024-9.557-1.024-14.336-1.024-5.461 0-11.947 1.024-17.408 2.389l-14.336-324.949 29.355-27.307 31.061 26.965z" />
<glyph unicode="&#xe91e;" glyph-name="profil" d="M511.392 959.833c-168.277 0-305.152-136.875-305.152-305.152 0-90.453 39.936-172.032 102.741-228.011-186.368-80.213-309.248-264.533-309.248-470.016 0-11.264 8.875-20.139 20.139-20.139h983.381c11.264 0 20.139 8.875 20.139 20.139 0 205.141-122.88 389.803-309.248 470.016 63.147 55.979 102.741 137.216 102.741 228.011-0.341 168.619-137.216 305.152-305.493 305.152zM511.392 920.238c146.091 0 264.875-119.125 264.875-264.875 0-146.091-119.125-264.875-264.875-264.875s-264.875 119.125-264.875 264.875c0 146.091 118.784 264.875 264.875 264.875zM346.528 398.681c47.787-30.72 104.448-48.811 165.205-48.811s117.077 18.091 164.864 48.811c177.493-66.219 297.984-232.789 306.176-421.888h-942.421c8.192 189.099 128.683 355.328 306.176 421.888v0z" />
<glyph unicode="&#xe91f;" glyph-name="puissance" d="M146.091 342.187h333.141l-37.888-406.187 436.565 626.688h-326.656l32.427 397.312-437.589-617.813zM780.629 512.171l-271.019-390.827 24.917 269.995h-290.133l273.408 388.437-21.163-267.264 283.989-0.341z" />
<glyph unicode="&#xe920;" glyph-name="rond-information" d="M512 960c-282.283 0-512-229.717-512-512s229.717-512 512-512 512 229.717 512 512-229.717 512-512 512zM564.565 161.963h-114.005v106.496h114.005v-106.496zM638.976 450.731c-33.792-25.259-69.632-45.397-76.8-91.477v-29.696h-105.813v35.157c4.779 68.267 36.864 98.645 67.925 122.88 30.379 24.235 57.003 42.325 57.003 84.651 0 47.787-24.917 70.656-66.56 70.656-56.32 0-79.872-46.080-80.555-101.717h-114.688c2.389 111.957 76.117 193.195 190.123 193.195 148.139 0 194.901-90.795 194.901-150.869 0-76.459-32.085-106.837-65.536-132.779z" />
<glyph unicode="&#xe921;" glyph-name="signe" d="M413.696 299.52l-305.493 237.909-105.813-135.851 431.787-335.872 587.435 649.216-127.659 115.371z" />
<glyph unicode="&#xe922;" glyph-name="signer" d="M969.728 907.093c-70.656 70.656-193.877 70.656-264.533 0l-626.347-627.029c-5.803-5.803-10.24-13.653-12.288-21.845l-65.877-263.851c-3.755-16.043 0.683-32.768 12.288-44.373 8.875-8.875 20.821-13.653 33.109-13.653 3.755 0 7.509 0.341 11.264 1.707l264.533 65.877c8.192 2.048 15.701 6.144 21.845 12.288l626.005 626.347c35.499 35.499 54.613 82.261 54.613 132.096s-19.115 96.939-54.613 132.437zM286.379 90.965l-176.469-44.032 44.032 176.469 518.827 518.144 132.096-132.096-518.485-518.485zM903.851 708.437l-33.109-33.109-132.096 132.096 33.109 33.109c35.499 35.499 96.597 35.499 132.096 0 17.408-17.408 27.307-41.301 27.307-65.877 0.341-24.917-9.557-48.128-27.307-66.219z" />
<glyph unicode="&#xe923;" glyph-name="signer-le-contrat" d="M897.365 960v-1024.341h-770.731v1024.341h770.731zM528.384 249.003h240.64v-23.893h-240.64v23.893zM528.384 321.365h240.64v-23.893h-240.64v23.893zM528.384 490.325h240.64v-23.893h-240.64v23.893zM528.384 562.347h240.64v-23.893h-240.64v23.893zM262.485 289.28l44.373-48.811 89.429 98.304 26.624-24.235-116.053-127.659-13.312 14.677-57.685 63.488 26.624 24.235zM262.485 529.92l44.373-48.811 89.429 98.304 26.624-24.235-116.053-127.659-13.312 14.677-57.685 63.488 26.624 24.235zM249.173 791.381h520.533v-36.181h-520.533v36.181zM861.184 924.16h-698.368v-951.979h698.368v951.979z" />
<glyph unicode="&#xe924;" glyph-name="telecharger" d="M961.195 92.331v-156.331h-898.389v156.331h898.389zM512 249.685l351.573 324.608h-234.155v385.707h-234.155v-385.707h-234.155l350.891-324.608z" />
<glyph unicode="&#xe925;" glyph-name="telecharger-le-contrat" d="M901.12 701.269c-59.051 0-118.784 0-177.835 0-4.437 0-8.875 0-13.312 0-1.024 0-2.048 0-3.072 0h-0.341c-1.365 0-2.048 0-3.413 0-1.024 0-2.389 0-3.413 0.341 2.048-0.341 1.365-0.341-0.341 0-7.509 1.024-9.899 2.389-15.36 5.461-5.803 3.072-8.192 5.461-13.312 11.605-3.413 3.755 2.048-2.731-1.024 1.365-0.683 1.024-1.365 2.731-2.731 3.755-0.683 1.365-1.365 2.731-2.389 4.096-2.389 4.437 1.024-3.072-0.683 2.048-1.024 3.072-2.048 6.144-2.731 9.216-1.024 5.12 0.341-3.072-0.341 2.048 0 1.365-0.341 3.413-0.341 5.12 0 24.235 0 48.469 0 72.704 0 40.619 0 81.237 0 122.197-9.557-3.755-19.115-8.192-28.672-11.947 35.157-35.157 70.656-70.656 105.472-105.472 47.104-47.104 94.208-94.208 141.312-141.312 3.413-3.413 6.485-6.485 9.899-9.899 15.36-15.36 39.253 8.533 23.893 23.893-35.157 35.157-70.656 70.656-105.472 105.472-47.104 47.104-94.208 94.208-141.312 141.312-3.413 3.413-6.485 6.485-9.899 9.899-10.24 10.24-28.672 2.731-28.672-11.947 0-59.051 0-118.784 0-177.835 0-9.899-0.341-19.456 1.024-29.696 4.437-30.379 27.989-55.296 57.344-63.829 11.264-3.072 22.528-2.731 34.133-2.731 15.019 0 30.379 0 45.397 0 45.397 0 90.453 0 135.851 0 9.216 0 16.725 7.509 16.725 16.725 0 9.557-7.168 17.408-16.384 17.408zM884.053 684.544c0-33.109 0-65.877 0-98.987 0-73.045 0-146.432 0-219.136 0-74.069 0-148.139 0-222.208 0-36.181 0-71.68 0-107.861 0-9.216-0.341-12.288-3.413-21.504-0.341-1.365-1.024-3.072-1.365-4.437 1.024 3.072-0.683-1.365-0.683-2.048-1.365-2.731-3.072-5.461-4.437-8.192-0.683-1.024-2.048-2.731-2.731-3.755 2.048 2.731-1.024-1.024-1.024-1.365-2.389-2.731-5.12-5.461-7.509-7.509-1.024-1.024-2.389-2.048-3.413-3.072 2.731 2.389-1.365-0.683-1.365-1.024-2.731-2.048-5.461-3.413-8.192-5.12-1.365-0.683-2.731-1.365-4.096-2.048 3.072 1.365-1.365-0.683-2.048-0.683-3.413-1.024-7.168-2.389-10.581-3.072-0.341 0-5.461-0.683-2.048-0.341-1.365-0.341-3.413-0.341-5.12-0.341-1.365 0-3.413 0-5.12 0-0.341 0-0.341 0-0.683 0-12.288 0-24.576 0-37.205 0-62.805 0-125.952 0-188.757 0-77.483 0-155.648 0-233.131 0-49.152 0-97.963 0-147.115 0-2.731 0-5.461 0-8.192 0-2.389 0-4.437 0-6.485 0.341-0.341 0-5.803 0.683-2.048 0.341-1.365 0.341-3.072 0.683-5.12 0.683-3.072 0.683-6.144 1.365-9.216 2.731-0.341 0-5.12 2.048-2.048 0.683-2.048 0.683-3.755 2.048-5.803 2.731-10.24 5.461-18.773 13.653-24.576 22.528-1.365 2.731-3.072 5.461-4.437 8.533-2.389 4.437 1.024-3.072-0.683 2.048-0.683 1.365-1.024 3.072-1.365 4.437-1.024 3.072-1.365 6.144-2.389 9.557-1.024 5.461 0.341-3.413-0.341 2.048-0.341 2.389-0.341 4.437-0.341 6.485 0 1.024 0 2.048 0 3.072 0 3.413 0 7.168 0 10.581 0 44.032 0 88.064 0 132.096 0 73.045 0 146.432 0 219.136 0 77.824 0 155.989 0 234.155 0 58.709 0 117.419 0 176.128 0 14.677 0 29.013 0 43.691 0 2.389 0 4.437 0 6.827 0 0.683 0 1.024 0 2.048 0 1.365 0 3.413 0.341 5.12 0 0.341 0.683 5.803 0.341 2.048 0.341 3.072 1.024 6.485 2.389 9.557 0.341 1.365 0.683 3.072 1.365 4.437 0.341 1.024 0.683 2.048 1.024 3.072-0.683-1.365-0.683-1.365 0.341 0.341 1.024 2.731 3.072 5.803 4.437 8.533 0.683 1.365 1.365 2.731 2.731 3.755 3.072 4.096-2.048-2.389 1.024 1.365 2.048 2.389 4.096 4.437 6.485 6.827 1.024 1.024 2.389 2.389 3.413 3.072 0.683 0.683 1.365 1.365 2.389 2.048-1.024-1.024-1.024-1.024 0.341 0.341 2.731 2.048 5.461 3.413 8.192 5.12 1.365 0.683 2.731 1.365 4.096 2.389 4.437 2.389-3.072-1.024 2.048 0.683 3.072 1.024 6.144 2.048 9.216 2.731 1.365 0.341 3.072 0.683 4.437 1.024 2.048 0.341 2.389 0.341 0.341 0 1.024 0 2.389 0.341 3.413 0.341 2.731 0.341 5.803 0.341 8.533 0.341 6.144 0 12.288 0 18.432 0 27.307 0 54.272 0 81.237 0 76.459 0 153.259 0 229.717 0 36.181 0 72.704 0 108.544 0-3.755 1.365-8.192 3.413-11.947 5.12 35.157-35.157 70.656-70.656 105.472-105.472 47.104-47.104 94.208-94.208 141.312-141.312 3.413-3.413 6.485-6.485 9.899-9.899 15.36-15.36 39.253 8.533 23.893 23.893-35.157 35.157-70.656 70.656-105.472 105.472-46.763 47.104-93.867 94.208-140.971 141.312-3.413 3.413-6.485 6.485-9.899 9.899-5.803 5.803-12.629 5.12-19.797 5.12-22.187 0-44.032 0-66.56 0-75.776 0-150.869 0-226.645 0-46.080 0-92.501 0-138.581 0-53.589 0-98.645-45.056-98.645-98.645 0-8.533 0-16.725 0-25.259 0-50.517 0-101.376 0-151.893 0-75.776 0-151.211 0-226.987 0-76.459 0-152.917 0-229.035 0-52.907 0-105.813 0-159.061 0-9.899 0-20.48 0-30.379 0-50.176 37.205-92.16 86.699-98.645 11.947-1.365 24.576-0.683 36.523-0.683 24.235 0 48.128 0 72.021 0 73.728 0 147.456 0 221.184 0 71.68 0 143.701 0 215.381 0 21.504 0 43.349 0 64.853 0 5.12 0 9.557 0 14.677 0 16.384 0 31.744 3.413 46.421 10.581 25.941 12.629 45.739 38.912 51.541 66.901 2.048 8.533 2.389 16.725 2.389 25.259 0 15.36 0 31.061 0 46.421 0 64.853 0 130.048 0 194.901 0 77.824 0 155.989 0 233.813 0 51.883 0 103.424 0 154.965 0 4.437 0 9.216 0 14.336 0 9.216-7.509 16.725-16.725 16.725-10.923-2.048-18.773-9.899-18.773-18.773zM356.352 449.707c54.272 0 107.861 0 162.133 0 49.493 0 98.987 0 148.821 0 9.216 0 16.725 7.509 16.725 16.725s-7.509 16.725-16.725 16.725c-54.272 0-107.861 0-162.133 0-49.493 0-98.987 0-148.821 0-9.216 0-16.725-7.509-16.725-16.725s7.509-16.725 16.725-16.725v0zM356.352 295.765c54.272 0 107.861 0 162.133 0 49.493 0 98.987 0 148.821 0 9.216 0 16.725 7.509 16.725 16.725s-7.509 16.725-16.725 16.725c-54.272 0-107.861 0-162.133 0-49.493 0-98.987 0-148.821 0-9.216 0-16.725-7.509-16.725-16.725s7.509-16.725 16.725-16.725v0zM356.352 141.824c55.296 0 110.933 0 166.229 0 0.341 0 0.683 0 0.683 0 9.216 0 16.725 7.509 16.725 16.725s-7.509 16.725-16.725 16.725c-55.296 0-110.933 0-166.229 0-0.341 0-0.683 0-0.683 0-9.216 0-16.725-7.509-16.725-16.725-0.341-8.875 7.509-16.725 16.725-16.725v0z" />
<glyph unicode="&#xe926;" glyph-name="zoom-moins" d="M512 960c-280.917 0-508.587-227.669-508.587-508.587s227.669-508.587 508.587-508.587 508.587 227.669 508.587 508.587-227.669 508.587-508.587 508.587zM789.845 408.064h-555.691v86.699h555.349v-86.699z" />
<glyph unicode="&#xe927;" glyph-name="zoom-plus" d="M512 960c-282.965 0-512-229.035-512-512s229.035-512 512-512 512 229.035 512 512-229.035 512-512 512zM791.552 404.309h-235.861v-235.861h-87.040v235.861h-236.203v87.040h235.861v236.203h87.040v-235.861h235.861v-87.381z" />
<glyph unicode="&#xe928;" glyph-name="attente-de-paiement" d="M406.869 228.523c-30.72 0.341-59.051 15.701-75.776 41.301-14.677 25.6-14.677 56.661 0 82.261l96.256 164.523c5.803 8.875 15.701 13.995 26.283 13.653h116.736c10.581 0 20.48-5.12 26.283-13.653l96.256-164.523c14.677-25.6 14.677-56.661 0-82.261-17.067-25.6-45.397-40.96-76.117-41.301h-209.92zM453.632 585.216c-7.509-0.341-15.019 2.731-20.48 8.192l-29.013 27.307c-11.264 9.557-12.288 26.624-2.389 37.888 5.803 6.485 14.336 9.899 22.869 8.875h175.104c15.019 0.683 27.648-11.264 28.331-26.283 0.341-7.509-2.731-15.019-7.851-20.48l-29.013-27.307c-5.461-5.461-12.629-8.533-20.48-8.192h-117.077zM508.587 960.683c-281.259 0-509.269-228.011-509.269-509.269s228.011-509.269 509.269-509.269 509.269 228.011 509.269 509.269-228.011 509.269-509.269 509.269zM508.587-43.52c-273.408 0-494.933 221.525-494.933 494.933s221.525 494.933 494.933 494.933 494.933-221.525 494.933-494.933-221.525-494.933-494.933-494.933z" />
<glyph unicode="&#xe929;" glyph-name="calendar" d="M128 639.829v-575.829h768v575.829h-768zM831.829 832h128c33.451 2.048 62.123-23.552 63.829-56.661 0-2.389 0-4.779 0-7.168v-768c2.048-33.451-23.552-62.123-56.661-63.829-2.389 0-4.779 0-7.168 0h-895.659c-33.451-2.389-62.123 23.211-64.171 56.661 0 2.389 0 4.779 0 7.168v768c-2.048 33.451 23.552 62.123 56.661 63.829 2.389 0 4.779 0 7.168 0h128v63.829c-1.707 33.451 23.552 62.123 57.003 64.171 2.389 0 4.779 0 7.168 0 33.451 2.048 62.123-23.552 63.829-56.661 0-2.389 0-4.779 0-7.168v-63.829h384v63.488c0 35.499 28.672 64.171 64.171 64.171s63.829-28.672 63.829-63.829v-64.171zM768 192h-128v128h128v-128zM575.829 192h-128v128h128v-128zM768 384.171h-128v128h128v-128zM575.829 384.171h-128v128h128v-128zM384 192h-128v128h128v-128z" />
<glyph unicode="&#xe92a;" glyph-name="chat" d="M723.627 71.168c-27.648-4.779-55.637-7.168-83.627-7.168-85.675-1.024-169.643 21.504-243.371 65.195 6.485 0 12.629-1.365 19.456-1.365 266.24 0 488.107 169.643 534.528 392.875 45.739-44.373 72.021-105.131 73.045-168.96-1.024-59.392-23.893-116.736-64.853-160.085h0.683v-256l-235.861 135.509zM63.829 421.035c-40.96 53.589-63.488 119.467-64.171 187.051 0.341 194.219 186.709 351.915 416.427 351.915s416.085-157.696 416.085-351.915-186.368-351.915-416.085-351.915c-61.44 0-122.197 11.605-179.2 34.816l-173.056-98.987v229.035z" />
<glyph unicode="&#xe92b;" glyph-name="checked" d="M13.653 408.747c-15.019 14.336-15.701 38.571-1.365 53.589 0.341 0.341 1.024 1.024 1.365 1.365l54.955 54.955c14.336 15.019 38.571 15.701 53.589 1.365 0.341-0.341 1.024-1.024 1.365-1.365l3.755-3.755 215.723-231.424c7.168-7.509 19.115-7.851 26.965-0.683 0.341 0.341 0.341 0.341 0.683 0.683l525.995 545.109h3.755c14.336 15.019 38.571 15.701 53.589 1.365 0.341-0.341 1.024-1.024 1.365-1.365l54.955-54.955c15.019-14.336 15.701-38.571 1.365-53.589-0.341-0.341-1.024-1.024-1.365-1.365v0l-627.712-651.264c-14.336-15.019-38.571-15.701-53.589-1.365-0.341 0.341-1.024 1.024-1.365 1.365l-306.176 329.728-7.851 11.605z" />
<glyph unicode="&#xe92c;" glyph-name="courbe" d="M896-64v1024h128v-1024h-128zM0-64v1024h128v-1024h-128zM704.171 255.829v704.171h128v-704.171h-128zM384 255.829v704.171h256v-704.171h-256zM192.171 255.829v704.171h128v-704.171h-128z" />
<glyph unicode="&#xe92d;" glyph-name="eye" d="M1006.254 470.187c-40.277 47.787-86.016 90.453-136.875 127.317-102.4 79.531-227.669 124.245-357.376 127.659-129.707-3.413-254.976-48.128-357.717-127.659-50.517-36.864-96.597-79.531-136.533-127.317l-17.749-22.187 17.749-22.187c40.277-47.787 86.016-90.453 136.875-127.317 102.4-79.531 228.011-124.245 357.717-127.659 129.707 3.413 254.976 48.128 357.717 127.659 50.517 36.523 96.597 79.531 136.875 127.317l17.749 22.187-18.432 22.187zM512.003 253.781c-107.179 0-194.219 87.040-194.219 194.56 0 16.384 2.048 32.427 6.144 48.469l-44.373 7.509c-20.139-83.968 6.827-172.715 70.315-231.424-53.931 20.48-104.789 48.128-151.211 82.261-37.888 27.648-73.045 58.709-104.789 92.843 32.085 34.133 66.901 65.195 104.789 92.843 46.421 34.133 97.28 62.123 151.211 82.261l29.696-33.451c78.165 73.387 201.045 69.291 274.432-9.216s69.291-201.045-9.216-274.432c-35.84-33.451-83.285-52.224-132.779-52.224v0zM825.689 355.157c-46.421-34.133-97.28-61.781-151.211-82.261 96.939 89.429 102.741 240.299 13.312 336.896-4.437 4.779-8.875 9.216-13.312 13.312 53.931-20.48 104.789-48.128 151.211-82.261 37.888-27.648 73.045-58.709 105.131-92.843-32.427-34.133-67.584-65.195-105.131-92.843v0zM388.441 485.888c-20.821-68.267 17.408-140.629 85.675-161.792 68.267-20.821 140.629 17.408 161.792 85.675 20.821 68.267-17.408 140.629-85.675 161.792-45.056 13.653-93.867 2.048-127.659-30.379l63.488-71.68-97.621 16.384z" />
<glyph unicode="&#xe92e;" glyph-name="fleche-bas1" d="M512 127.829l-503.467 508.587 130.389 131.755 373.077-376.832 372.736 376.832 130.389-131.755-503.125-508.587z" />
<glyph unicode="&#xe92f;" glyph-name="fleche-droite1" d="M837.973 448l-517.803-512-134.144 132.779 383.659 379.221-383.659 379.221 134.144 132.779 517.803-512z" />
<glyph unicode="&#xe930;" glyph-name="graph" d="M831.829-64c-33.451-2.048-62.123 23.552-63.829 56.661 0 2.389 0 4.779 0 7.168v576.171c-2.048 33.451 23.552 62.123 56.661 63.829 2.389 0 4.779 0 7.168 0h128c33.451 2.048 62.123-23.552 63.829-56.661 0-2.389 0-4.779 0-7.168v-575.829c2.048-33.451-23.552-62.123-56.661-63.829-2.389 0-4.779 0-7.168 0h-128zM448.171-64c-33.451-2.048-61.781 23.211-63.829 56.661 0 2.389 0 4.779 0 7.509v895.659c-2.389 33.451 23.211 62.123 56.32 64.171 2.389 0 4.779 0 7.168 0h128c33.451 2.048 62.123-23.552 63.829-56.661 0-2.389 0-4.779 0-7.168v-895.659c2.048-33.451-23.211-61.781-56.661-63.829-2.389 0-4.779 0-7.509 0h-127.317zM64.171-64c-33.451-2.048-62.123 23.552-64.171 57.003 0 2.389 0 4.779 0 7.168v256c-2.048 33.451 23.552 62.123 56.661 63.829 2.389 0 4.779 0 7.168 0h128c33.451 2.048 62.123-23.552 63.829-57.003 0-2.389 0-4.779 0-7.168v-256c2.048-33.451-23.552-62.123-56.661-63.829-2.389 0-4.779 0-7.168 0h-127.659z" />
<glyph unicode="&#xe931;" glyph-name="informations" d="M512 960c-282.624 0-512-229.376-512-512s229.376-512 512-512 512 229.376 512 512c-0.683 282.283-229.717 511.317-512 512zM512 192c-33.451-2.048-62.123 23.552-64.171 56.661 0 2.389 0 4.779 0 7.168-2.048 33.451 23.552 62.123 56.661 64.171 2.389 0 4.779 0 7.168 0 33.451 2.048 62.123-23.552 64.171-56.661 0-2.389 0-4.779 0-7.168 2.048-33.451-23.552-62.123-56.661-64.171-2.389 0-4.779 0-7.168 0zM576.171 383.829h-128v320.171h128v-320.171z" />
<glyph unicode="&#xe932;" glyph-name="items" d="M896 960h-768c-33.451 2.048-62.123-23.552-63.829-56.661 0-2.389 0-4.779 0-7.168v-960.171l191.829 128 128-128 128 128 128-128 128 128 191.829-128v959.829c2.048 33.451-23.211 62.123-56.661 64.171-2.389 0-4.779 0-7.168 0zM768 320h-512v128h512v-128zM768 576h-512v128h512v-128z" />
<glyph unicode="&#xe933;" glyph-name="menu-points" d="M768 448c0 70.656 57.344 128 128 128s128-57.344 128-128-57.344-128-128-128-128 57.344-128 128zM384 448c0 70.656 57.344 128 128 128s128-57.344 128-128-57.344-128-128-128-128 57.344-128 128zM0 448c0 70.656 57.344 128 128 128s128-57.344 128-128-57.344-128-128-128-128 57.344-128 128z" />
<glyph unicode="&#xe934;" glyph-name="montant-facture" d="M712.021 714.581h-400.043c-17.408 1.024-32.427-12.288-33.451-29.696 0-1.365 0-2.389 0-3.755v-500.053l100.011 66.56 66.56-66.56 66.56 66.56 66.56-66.56 66.56 66.56 100.011-66.56v500.053c1.024 17.408-12.288 32.427-29.696 33.451-0.683 0-1.707 0-3.072 0zM645.461 381.44h-266.581v66.56h266.581v-66.56zM645.461 514.56h-266.581v66.56h266.581v-66.56zM512 957.269c-281.259 0-509.269-228.011-509.269-509.269s228.011-509.269 509.269-509.269 509.269 228.011 509.269 509.269-228.011 509.269-509.269 509.269zM512-46.933c-273.408 0-494.933 221.525-494.933 494.933s221.525 494.933 494.933 494.933 494.933-221.525 494.933-494.933-221.525-494.933-494.933-494.933z" />
<glyph unicode="&#xe935;" glyph-name="notification" d="M384 64h256c-0.341-70.656-57.344-127.659-128-128-70.656 0.341-127.659 57.344-128 128zM64.171 127.829c-33.451-2.048-62.123 23.552-63.829 56.661 0 2.389 0 4.779 0 7.168-2.048 33.451 23.552 62.123 56.661 63.829 2.389 0 4.779 0 7.168 0h32.085c56.32 48.469 90.795 117.76 95.915 191.829v191.829c-1.707 175.104 138.923 318.123 313.685 319.829 2.048 0 4.096 0 6.144 0 175.104 1.707 318.123-138.581 319.829-313.685 0-2.048 0-4.096 0-6.144v-191.147c5.12-74.411 39.595-143.36 95.915-191.829h32.085c33.451 2.048 62.123-23.552 63.829-56.661 0-2.389 0-4.779 0-7.168 2.048-33.451-23.552-62.123-56.661-63.829-2.389 0-4.779 0-7.168 0h-895.659z" />
<glyph unicode="&#xe936;" glyph-name="plus1" d="M512 960c-282.965 0-512-229.376-512-512s229.376-512 512-512c282.624 0 512 229.376 512 512-0.341 282.624-229.376 511.659-512 512zM758.101 408.747h-206.848v-216.747c0-21.845-17.749-39.253-39.253-39.253-21.845 0-39.253 17.749-39.253 39.253 0 0 0 0 0 0v216.747h-206.848c-21.845 0-39.253 17.749-39.253 39.253 0 21.845 17.749 39.253 39.253 39.253 0 0 0 0 0 0h206.848v196.949c0 21.845 17.749 39.253 39.253 39.253 21.845 0 39.253-17.749 39.253-39.253 0 0 0 0 0 0v-196.949h206.848c21.845 0 39.253-17.749 39.253-39.253 0.341-21.845-17.408-39.253-39.253-39.253v0z" />
<glyph unicode="&#xe937;" glyph-name="send-message" d="M98.645 950.443c-30.379 18.773-69.973 9.216-88.405-21.163-10.24-16.725-12.288-37.205-5.461-55.296l123.563-298.325 468.992-128-468.992-128-123.563-298.325c-12.629-32.085 3.072-68.267 35.157-80.896 17.749-6.827 37.888-5.461 54.272 4.096l929.451 503.125-925.013 502.784z" />
<glyph unicode="&#xe938;" glyph-name="telecharger1" d="M765.034 493.056c-5.12 11.605-16.384 19.115-29.013 19.115h-128v416.085c0 17.408-14.336 31.744-31.744 31.744h-128c-17.408 0-31.744-14.336-31.744-31.744v-416.427h-128.683c-17.408 0.341-32.085-13.653-32.427-31.061 0-8.192 2.731-16.043 8.192-21.845l223.915-256c11.264-13.312 31.403-14.677 44.715-3.413 1.365 1.024 2.389 2.048 3.413 3.413l224.256 256c8.533 9.216 10.581 22.869 5.12 34.133zM863.915 255.84v-192.171h-704.171v192.171h-127.659v-256c0-35.499 28.672-64.171 64.171-64.171 0 0 0 0 0 0h832.171c35.157 0 63.829 28.672 64.171 63.829 0 0 0 0 0 0v256h-128.683z" />
<glyph unicode="&#xe939;" glyph-name="total-vendu" d="M463.773 608.283h-7.509c-8.192 0.341-15.36-6.144-15.701-14.336v-60.757h38.571v60.757c-0.341 8.192-7.168 14.677-15.36 14.336zM567.538 608.283h-7.509c-8.192 0.341-15.36-6.144-15.701-14.336v-60.757h38.571v60.757c0 8.192-7.168 14.677-15.36 14.336zM511.901 714.779c-150.528 0-272.725-122.197-272.725-273.067 0-117.76 75.776-222.549 187.733-259.072 13.653-4.437 28.672 3.072 33.109 16.725s-3.072 28.672-16.725 33.109v0c-33.109 10.923-63.147 29.355-87.723 53.931-85.675 86.357-85.333 225.621 0.683 311.296 86.357 85.675 225.621 85.333 311.296-0.683 40.96-41.301 64.171-96.939 64.171-155.307s-23.211-114.347-64.512-155.648c-16.043-14.336-55.637-43.008-79.189-43.008-10.923-0.683-21.504 3.755-28.672 11.947-18.773 20.821-22.869 63.488-22.869 92.843 45.739 2.389 81.92 40.277 81.92 86.016v81.92h-213.675v-81.579c0-45.056 34.475-82.261 79.189-86.016-0.341-35.157 4.779-92.843 36.181-128 17.067-19.456 41.984-30.037 67.925-29.696 50.859 0 108.544 51.2 115.029 57.003l0.683 0.683c106.837 106.155 107.179 278.869 1.024 385.707-50.517 51.883-120.149 80.896-192.853 80.896zM508.587 960.683c-281.259 0-509.269-228.011-509.269-509.269s228.011-509.269 509.269-509.269 509.269 228.011 509.269 509.269-228.011 509.269-509.269 509.269zM508.587-43.52c-273.408 0-494.933 221.525-494.933 494.933s221.525 494.933 494.933 494.933 494.933-221.525 494.933-494.933-221.525-494.933-494.933-494.933z" />
<glyph unicode="&#xe93a;" glyph-name="trombone" d="M937.643 871.595c-59.392 55.637-137.216 87.040-218.795 88.405-81.579-0.341-159.744-32.085-218.795-88.405-12.971-13.995-19.456-32.427-18.432-51.2 1.365-18.432 7.509-36.181 18.432-51.2 13.995-12.971 32.427-19.456 51.2-18.432v0c18.432 1.024 36.181 7.509 51.2 18.432 67.584 65.195 174.421 65.195 242.005 0 26.283-33.109 40.96-74.069 41.984-116.395 0-45.739-18.432-89.088-51.2-120.832l-404.821-405.163c-67.584-65.195-174.421-65.195-242.005 0-29.355 31.744-46.080 73.045-46.421 116.395 0 45.739 18.432 89.088 51.2 120.832l172.032 172.373c19.456 18.432 50.176 18.432 69.632 0 18.773-21.163 18.773-53.248 0-74.411l-125.611-125.611c-12.971-13.995-19.456-32.427-18.432-51.2 1.365-18.432 7.509-36.181 18.432-51.2 28.331-23.211 69.291-23.211 97.621 0l125.269 125.611c74.411 74.411 74.411 195.243 0 269.995-35.499 36.181-83.968 56.32-134.485 55.979-48.811 3.072-96.597-15.701-130.389-51.2l-172.373-172.032c-59.733-57.003-93.525-136.192-92.843-219.136 0.341-81.579 32.085-159.744 88.405-218.795 59.733-55.637 137.557-87.040 219.136-88.405 81.579 0.341 159.744 32.085 218.795 88.405l404.821 405.163c58.368 57.685 90.112 136.533 88.405 218.453 3.413 82.944-26.624 163.499-83.968 223.573z" />
<glyph unicode="&#xe93b;" glyph-name="visualiser" d="M1003.52 470.187c-39.936 47.445-85.675 90.112-136.192 126.635-102.059 79.189-226.645 123.563-355.669 126.976-129.024-3.413-253.611-47.787-355.669-126.976-50.176-36.523-95.915-79.189-135.851-126.635l-17.067-22.187 17.408-22.187c39.936-47.445 85.675-90.112 136.192-126.635 102.059-79.189 226.645-123.563 355.669-126.976 129.024 3.413 253.611 47.787 355.669 126.976 50.517 36.523 95.915 78.848 136.192 126.635l17.408 22.187-18.091 22.187zM512 254.805c-106.837 0-193.195 86.699-193.195 193.195 0 16.384 2.048 32.427 6.144 48.128l-44.032 7.509c-20.139-83.627 6.485-171.691 69.632-230.059-53.589 20.139-104.107 47.787-150.187 81.92-37.888 27.648-72.704 58.368-104.448 92.501 31.744 34.133 66.901 64.853 104.448 92.501 46.080 34.133 96.597 61.44 150.187 81.92l29.696-33.451c77.824 73.045 200.021 68.949 273.067-8.875s68.949-200.021-8.875-273.067c-36.181-33.451-83.627-52.224-132.437-52.224v0zM823.637 355.499c-46.080-34.133-96.597-61.44-150.187-81.92 96.256 89.088 102.059 238.933 13.312 335.189-4.096 4.437-8.533 8.875-13.312 13.312 53.589-20.139 104.107-47.787 150.187-81.92 37.547-27.648 72.363-58.368 104.448-92.501-32.085-33.792-66.901-64.512-104.448-92.16v0zM389.12 485.547c-20.821-67.925 17.408-139.947 85.333-160.768s139.947 17.408 160.768 85.333c20.821 67.925-17.408 139.947-85.333 160.768-44.715 13.653-93.184 2.048-126.976-30.379l63.488-71.339-97.28 16.384z" />
<glyph unicode="&#xe93c;" glyph-name="moins" d="M0 496.128h1024v-96.256h-1024v96.256z" />
</font>
</defs>
</svg>
